WIPSHDC Old Traditional Sans-ExtraLight.ufo
<glyph name="uni506E" format="2">
	<advance width="1000" height="1000"/>
	<unicode hex="506E"/>
	<note>
		cid10438
	</note>
	<outline>
		<contour>
			<point x="309" y="822" type="curve"/>
			<point x="281" y="830" type="line"/>
			<point x="225" y="678"/>
			<point x="132" y="523"/>
			<point x="40" y="428" type="curve"/>
			<point x="47" y="423"/>
			<point x="57" y="410"/>
			<point x="61" y="404" type="curve"/>
			<point x="154" y="500"/>
			<point x="249" y="661"/>
		</contour>
		<contour>
			<point x="212" y="635" type="line"/>
			<point x="184" y="607" type="line"/>
			<point x="184" y="-71" type="line"/>
			<point x="214" y="-71" type="line"/>
			<point x="214" y="634" type="line"/>
		</contour>
		<contour>
			<point x="429" y="601" type="line"/>
			<point x="429" y="767" type="line"/>
			<point x="813" y="767" type="line"/>
			<point x="813" y="601" type="line"/>
		</contour>
		<contour>
			<point x="842" y="796" type="line"/>
			<point x="400" y="796" type="line"/>
			<point x="400" y="571" type="line"/>
			<point x="842" y="571" type="line"/>
		</contour>
		<contour>
			<point x="938" y="487" type="line"/>
			<point x="307" y="487" type="line"/>
			<point x="307" y="458" type="line"/>
			<point x="938" y="458" type="line"/>
		</contour>
		<contour>
			<point x="447" y="480" type="line"/>
			<point x="418" y="480" type="line"/>
			<point x="418" y="57" type="line"/>
			<point x="447" y="62" type="line"/>
		</contour>
		<contour>
			<point x="812" y="356" type="line"/>
			<point x="427" y="356" type="line"/>
			<point x="427" y="327" type="line"/>
			<point x="812" y="327" type="line"/>
		</contour>
		<contour>
			<point x="812" y="224" type="line"/>
			<point x="427" y="224" type="line"/>
			<point x="427" y="195" type="line"/>
			<point x="812" y="195" type="line"/>
		</contour>
		<contour>
			<point x="824" y="480" type="line"/>
			<point x="795" y="480" type="line"/>
			<point x="795" y="-69" type="line"/>
			<point x="824" y="-69" type="line"/>
		</contour>
		<contour>
			<point x="285" y="71" type="curve"/>
			<point x="287" y="39" type="line"/>
			<point x="464" y="47"/>
			<point x="719" y="59"/>
			<point x="949" y="72" type="curve"/>
			<point x="950" y="100" type="line"/>
			<point x="719" y="88"/>
			<point x="464" y="77"/>
		</contour>
	</outline>
</glyph>
<glyph name="uni507A" format="2">
	<advance width="1000" height="1000"/>
	<unicode hex="507A"/>
	<note>
		cid10459
	</note>
	<outline>
		<contour>
			<point x="278" y="817" type="curve"/>
			<point x="249" y="823" type="line"/>
			<point x="203" y="660"/>
			<point x="127" y="502"/>
			<point x="37" y="397" type="curve"/>
			<point x="44" y="391"/>
			<point x="55" y="379"/>
			<point x="59" y="374" type="curve"/>
			<point x="150" y="485"/>
			<point x="228" y="646"/>
		</contour>
		<contour>
			<point x="200" y="617" type="line"/>
			<point x="171" y="587" type="line"/>
			<point x="171" y="-70" type="line"/>
			<point x="200" y="-70" type="line"/>
			<point x="200" y="616" type="line"/>
		</contour>
		<contour>
			<point x="393" y="687" type="curve"/>
			<point x="367" y="673" type="line"/>
			<point x="442" y="410"/>
			<point x="588" y="356"/>
			<point x="793" y="356" type="curve" smooth="yes"/>
			<point x="912" y="356" type="line"/>
			<point x="947" y="356" type="line"/>
			<point x="948" y="364"/>
			<point x="954" y="376"/>
			<point x="960" y="384" type="curve"/>
			<point x="934" y="384"/>
			<point x="811" y="384"/>
			<point x="793" y="384" type="curve" smooth="yes"/>
			<point x="605" y="384"/>
			<point x="460" y="435"/>
		</contour>
		<contour>
			<point x="465" y="823" type="curve"/>
			<point x="434" y="830" type="line"/>
			<point x="397" y="722"/>
			<point x="334" y="622"/>
			<point x="261" y="555" type="curve"/>
			<point x="269" y="550"/>
			<point x="282" y="540"/>
			<point x="287" y="535" type="curve"/>
			<point x="359" y="606"/>
			<point x="425" y="710"/>
		</contour>
		<contour>
			<point x="589" y="729" type="line"/>
			<point x="408" y="729" type="line"/>
			<point x="393" y="700" type="line"/>
			<point x="589" y="700" type="line"/>
		</contour>
		<contour>
			<point x="582" y="729" type="line"/>
			<point x="575" y="729" type="line"/>
			<point x="575" y="721" type="line"/>
			<point x="529" y="527"/>
			<point x="412" y="399"/>
			<point x="274" y="332" type="curve"/>
			<point x="280" y="327"/>
			<point x="290" y="316"/>
			<point x="295" y="309" type="curve"/>
			<point x="435" y="380"/>
			<point x="556" y="512"/>
			<point x="608" y="721" type="curve"/>
			<point x="589" y="731" type="line"/>
		</contour>
		<contour>
			<point x="849" y="302" type="line"/>
			<point x="387" y="302" type="line"/>
			<point x="387" y="-70" type="line"/>
			<point x="417" y="-70" type="line"/>
			<point x="417" y="273" type="line"/>
			<point x="819" y="273" type="line"/>
			<point x="819" y="-67" type="line"/>
			<point x="849" y="-67" type="line"/>
		</contour>
		<contour>
			<point x="836" y="-4" type="line"/>
			<point x="403" y="-4" type="line"/>
			<point x="403" y="-33" type="line"/>
			<point x="836" y="-33" type="line"/>
		</contour>
		<contour>
			<point x="835" y="150" type="line"/>
			<point x="402" y="150" type="line"/>
			<point x="402" y="121" type="line"/>
			<point x="835" y="121" type="line"/>
		</contour>
		<contour>
			<point x="757" y="658" type="curve"/>
			<point x="734" y="643" type="line"/>
			<point x="795" y="574"/>
			<point x="853" y="492"/>
			<point x="883" y="430" type="curve"/>
			<point x="906" y="451" type="line"/>
			<point x="874" y="512"/>
			<point x="817" y="592"/>
		</contour>
		<contour>
			<point x="795" y="810" type="curve"/>
			<point x="765" y="815" type="line"/>
			<point x="746" y="656"/>
			<point x="696" y="536"/>
			<point x="609" y="453" type="curve"/>
			<point x="616" y="447"/>
			<point x="625" y="434"/>
			<point x="629" y="428" type="curve"/>
			<point x="719" y="517"/>
			<point x="774" y="644"/>
		</contour>
	</outline>
</glyph>
<glyph name="uni5170" format="2">
	<advance width="1000" height="1000"/>
	<unicode hex="5170"/>
	<note>
		cid10917
	</note>
	<outline>
		<contour>
			<point x="268" y="817" type="curve"/>
			<point x="245" y="805" type="line"/>
			<point x="291" y="746"/>
			<point x="333" y="672"/>
			<point x="355" y="613" type="curve"/>
			<point x="381" y="628" type="line"/>
			<point x="360" y="686"/>
			<point x="316" y="759"/>
		</contour>
		<contour>
			<point x="758" y="816" type="curve"/>
			<point x="729" y="828" type="line"/>
			<point x="697" y="754"/>
			<point x="654" y="673"/>
			<point x="616" y="619" type="curve"/>
			<point x="639" y="607" type="line"/>
			<point x="676" y="660"/>
			<point x="722" y="740"/>
		</contour>
		<contour>
			<point x="799" y="319" type="line"/>
			<point x="191" y="319" type="line"/>
			<point x="191" y="290" type="line"/>
			<point x="799" y="290" type="line"/>
		</contour>
		<contour>
			<point x="935" y="22" type="line"/>
			<point x="65" y="22" type="line"/>
			<point x="65" y="-7" type="line"/>
			<point x="935" y="-7" type="line"/>
		</contour>
		<contour>
			<point x="875" y="593" type="line"/>
			<point x="125" y="593" type="line"/>
			<point x="125" y="564" type="line"/>
			<point x="875" y="564" type="line"/>
		</contour>
	</outline>
</glyph>
<glyph name="uni5241" format="2">
	<advance width="1000" height="1000"/>
	<unicode hex="5241"/>
	<note>
		cid11222
	</note>
	<outline>
		<contour>
			<point x="559" y="313" type="line"/>
			<point x="56" y="313" type="line"/>
			<point x="56" y="283" type="line"/>
			<point x="559" y="283" type="line"/>
		</contour>
		<contour>
			<point x="327" y="451" type="line"/>
			<point x="298" y="451" type="line"/>
			<point x="298" y="-70" type="line"/>
			<point x="327" y="-70" type="line"/>
		</contour>
		<contour>
			<point x="320" y="296" type="curve"/>
			<point x="295" y="307" type="line"/>
			<point x="243" y="183"/>
			<point x="147" y="61"/>
			<point x="45" y="-9" type="curve"/>
			<point x="53" y="-16"/>
			<point x="61" y="-26"/>
			<point x="65" y="-34" type="curve"/>
			<point x="170" y="40"/>
			<point x="268" y="167"/>
		</contour>
		<contour>
			<point x="671" y="718" type="line"/>
			<point x="641" y="718" type="line"/>
			<point x="641" y="166" type="line"/>
			<point x="671" y="166" type="line"/>
		</contour>
		<contour>
			<point x="902" y="-17" type="curve" smooth="yes"/>
			<point x="902" y="815" type="line"/>
			<point x="871" y="815" type="line"/>
			<point x="871" y="-18" type="line" smooth="yes"/>
			<point x="871" y="-35"/>
			<point x="865" y="-40"/>
			<point x="848" y="-41" type="curve" smooth="yes"/>
			<point x="833" y="-42"/>
			<point x="780" y="-42"/>
			<point x="715" y="-40" type="curve"/>
			<point x="721" y="-49"/>
			<point x="725" y="-63"/>
			<point x="728" y="-69" type="curve"/>
			<point x="808" y="-70"/>
			<point x="848" y="-70"/>
			<point x="869" y="-65" type="curve" smooth="yes"/>
			<point x="890" y="-59"/>
			<point x="902" y="-48"/>
		</contour>
		<contour>
			<point x="411" y="795" type="line"/>
			<point x="201" y="795" type="line"/>
			<point x="201" y="766" type="line"/>
			<point x="411" y="766" type="line"/>
		</contour>
		<contour>
			<point x="217" y="697" type="curve" smooth="yes"/>
			<point x="217" y="795" type="line"/>
			<point x="187" y="795" type="line"/>
			<point x="187" y="697" type="line" smooth="yes"/>
			<point x="187" y="607"/>
			<point x="174" y="509"/>
			<point x="58" y="434" type="curve"/>
			<point x="65" y="430"/>
			<point x="74" y="419"/>
			<point x="77" y="411" type="curve"/>
			<point x="200" y="492"/>
			<point x="217" y="599"/>
		</contour>
		<contour>
			<point x="322" y="239" type="curve"/>
			<point x="302" y="220" type="line"/>
			<point x="377" y="173"/>
			<point x="470" y="101"/>
			<point x="541" y="33" type="curve"/>
			<point x="561" y="56" type="line"/>
			<point x="487" y="124"/>
			<point x="394" y="194"/>
		</contour>
		<contour>
			<point x="427" y="508" type="curve" smooth="yes"/>
			<point x="427" y="795" type="line"/>
			<point x="398" y="795" type="line"/>
			<point x="398" y="508" type="line" smooth="yes"/>
			<point x="398" y="463"/>
			<point x="412" y="455"/>
			<point x="460" y="455" type="curve" smooth="yes"/>
			<point x="468" y="455"/>
			<point x="495" y="455"/>
			<point x="503" y="455" type="curve" smooth="yes"/>
			<point x="552" y="455"/>
			<point x="561" y="485"/>
			<point x="563" y="577" type="curve"/>
			<point x="554" y="580"/>
			<point x="543" y="584"/>
			<point x="534" y="591" type="curve"/>
			<point x="532" y="500"/>
			<point x="528" y="485"/>
			<point x="500" y="485" type="curve" smooth="yes"/>
			<point x="492" y="485"/>
			<point x="469" y="485"/>
			<point x="461" y="485" type="curve" smooth="yes"/>
			<point x="432" y="485"/>
			<point x="427" y="489"/>
		</contour>
	</outline>
</glyph>
<glyph name="uni5482" format="2">
	<advance width="1000" height="1000"/>
	<unicode hex="5482"/>
	<note>
		cid12131
	</note>
	<outline>
		<contour>
			<point x="687" y="682" type="line"/>
			<point x="658" y="682" type="line"/>
			<point x="658" y="73" type="line"/>
			<point x="687" y="73" type="line"/>
		</contour>
		<contour>
			<point x="862" y="235" type="curve" smooth="yes"/>
			<point x="862" y="560" type="line"/>
			<point x="833" y="560" type="line"/>
			<point x="833" y="235" type="line" smooth="yes"/>
			<point x="833" y="225"/>
			<point x="830" y="223"/>
			<point x="820" y="222" type="curve" smooth="yes"/>
			<point x="810" y="221"/>
			<point x="776" y="221"/>
			<point x="734" y="222" type="curve"/>
			<point x="739" y="214"/>
			<point x="744" y="204"/>
			<point x="746" y="197" type="curve"/>
			<point x="798" y="197"/>
			<point x="827" y="197"/>
			<point x="842" y="202" type="curve" smooth="yes"/>
			<point x="857" y="207"/>
			<point x="862" y="217"/>
		</contour>
		<contour>
			<point x="847" y="560" type="line"/>
			<point x="483" y="560" type="line"/>
			<point x="483" y="190" type="line"/>
			<point x="512" y="190" type="line"/>
			<point x="512" y="531" type="line"/>
			<point x="847" y="531" type="line"/>
		</contour>
		<contour>
			<point x="943" y="766" type="line"/>
			<point x="364" y="766" type="line"/>
			<point x="364" y="-71" type="line"/>
			<point x="393" y="-71" type="line"/>
			<point x="393" y="737" type="line"/>
			<point x="943" y="737" type="line"/>
		</contour>
		<contour>
			<point x="949" y="14" type="line"/>
			<point x="378" y="14" type="line"/>
			<point x="378" y="-15" type="line"/>
			<point x="949" y="-15" type="line"/>
		</contour>
		<contour>
			<point x="289" y="700" type="line"/>
			<point x="99" y="700" type="line"/>
			<point x="99" y="671" type="line"/>
			<point x="260" y="671" type="line"/>
			<point x="260" y="226" type="line"/>
			<point x="99" y="226" type="line"/>
			<point x="99" y="197" type="line"/>
			<point x="289" y="197" type="line"/>
		</contour>
		<contour>
			<point x="114" y="700" type="line"/>
			<point x="85" y="700" type="line"/>
			<point x="85" y="113" type="line"/>
			<point x="114" y="113" type="line"/>
		</contour>
	</outline>
</glyph>
<glyph name="uni55EF" format="2">
	<advance width="1000" height="1000"/>
	<unicode hex="55EF"/>
	<note>
		cid12711
	</note>
	<outline>
		<contour>
			<point x="300" y="698" type="line"/>
			<point x="95" y="698" type="line"/>
			<point x="95" y="669" type="line"/>
			<point x="271" y="669" type="line"/>
			<point x="271" y="218" type="line"/>
			<point x="95" y="218" type="line"/>
			<point x="95" y="189" type="line"/>
			<point x="300" y="189" type="line"/>
		</contour>
		<contour>
			<point x="114" y="698" type="line"/>
			<point x="85" y="698" type="line"/>
			<point x="85" y="93" type="line"/>
			<point x="114" y="93" type="line"/>
		</contour>
		<contour>
			<point x="397" y="347" type="line"/>
			<point x="397" y="762" type="line"/>
			<point x="846" y="762" type="line"/>
			<point x="846" y="347" type="line"/>
		</contour>
		<contour>
			<point x="875" y="791" type="line"/>
			<point x="367" y="791" type="line"/>
			<point x="367" y="318" type="line"/>
			<point x="875" y="318" type="line"/>
		</contour>
		<contour>
			<point x="616" y="562" type="curve"/>
			<point x="596" y="546" type="line"/>
			<point x="657" y="501"/>
			<point x="732" y="436"/>
			<point x="770" y="396" type="curve"/>
			<point x="789" y="416" type="line"/>
			<point x="751" y="454"/>
			<point x="677" y="517"/>
		</contour>
		<contour>
			<point x="800" y="621" type="line"/>
			<point x="442" y="621" type="line"/>
			<point x="442" y="592" type="line"/>
			<point x="800" y="592" type="line"/>
		</contour>
		<contour>
			<point x="639" y="728" type="curve"/>
			<point x="610" y="728" type="line"/>
			<point x="604" y="541"/>
			<point x="575" y="457"/>
			<point x="434" y="410" type="curve"/>
			<point x="439" y="405"/>
			<point x="449" y="394"/>
			<point x="452" y="387" type="curve"/>
			<point x="599" y="440"/>
			<point x="633" y="530"/>
		</contour>
		<contour>
			<point x="499" y="-10" type="curve" smooth="yes"/>
			<point x="499" y="215" type="line"/>
			<point x="470" y="215" type="line"/>
			<point x="470" y="-9" type="line" smooth="yes"/>
			<point x="470" y="-56"/>
			<point x="487" y="-65"/>
			<point x="555" y="-65" type="curve" smooth="yes"/>
			<point x="570" y="-65"/>
			<point x="708" y="-65"/>
			<point x="723" y="-65" type="curve" smooth="yes"/>
			<point x="780" y="-65"/>
			<point x="792" y="-39"/>
			<point x="796" y="74" type="curve"/>
			<point x="787" y="77"/>
			<point x="775" y="81"/>
			<point x="769" y="86" type="curve"/>
			<point x="765" y="-22"/>
			<point x="759" y="-38"/>
			<point x="720" y="-38" type="curve" smooth="yes"/>
			<point x="690" y="-38"/>
			<point x="576" y="-38"/>
			<point x="554" y="-38" type="curve" smooth="yes"/>
			<point x="508" y="-38"/>
			<point x="499" y="-33"/>
		</contour>
		<contour>
			<point x="411" y="178" type="curve"/>
			<point x="385" y="188" type="line"/>
			<point x="361" y="99"/>
			<point x="314" y="18"/>
			<point x="264" y="-21" type="curve"/>
			<point x="290" y="-38" type="line"/>
			<point x="338" y="0"/>
			<point x="385" y="83"/>
		</contour>
		<contour>
			<point x="547" y="294" type="curve"/>
			<point x="526" y="275" type="line"/>
			<point x="586" y="241"/>
			<point x="656" y="187"/>
			<point x="690" y="147" type="curve"/>
			<point x="712" y="169" type="line"/>
			<point x="677" y="208"/>
			<point x="608" y="260"/>
		</contour>
		<contour>
			<point x="794" y="193" type="curve"/>
			<point x="771" y="178" type="line"/>
			<point x="844" y="115"/>
			<point x="913" y="27"/>
			<point x="939" y="-35" type="curve"/>
			<point x="963" y="-17" type="line"/>
			<point x="936" y="45"/>
			<point x="866" y="132"/>
		</contour>
	</outline>
</glyph>
<glyph name="uni6568" format="2">
	<advance width="1000" height="1000"/>
	<unicode hex="6568"/>
	<note>
		cid19981
	</note>
	<outline>
		<contour>
			<point x="495" y="705" type="line"/>
			<point x="80" y="705" type="line"/>
			<point x="80" y="675" type="line"/>
			<point x="495" y="675" type="line"/>
		</contour>
		<contour>
			<point x="507" y="437" type="line"/>
			<point x="49" y="437" type="line"/>
			<point x="49" y="408" type="line"/>
			<point x="507" y="408" type="line"/>
		</contour>
		<contour>
			<point x="307" y="822" type="line"/>
			<point x="277" y="822" type="line"/>
			<point x="277" y="685" type="line"/>
			<point x="307" y="685" type="line"/>
		</contour>
		<contour>
			<point x="170" y="644" type="curve"/>
			<point x="143" y="638" type="line"/>
			<point x="167" y="582"/>
			<point x="187" y="509"/>
			<point x="193" y="461" type="curve"/>
			<point x="222" y="469" type="line"/>
			<point x="216" y="516"/>
			<point x="194" y="589"/>
		</contour>
		<contour>
			<point x="441" y="645" type="curve"/>
			<point x="411" y="654" type="line"/>
			<point x="395" y="599"/>
			<point x="364" y="515"/>
			<point x="341" y="465" type="curve"/>
			<point x="366" y="456" type="line"/>
			<point x="392" y="505"/>
			<point x="419" y="583"/>
		</contour>
		<contour>
			<point x="452" y="35" type="line"/>
			<point x="140" y="35" type="line"/>
			<point x="140" y="6" type="line"/>
			<point x="452" y="6" type="line"/>
		</contour>
		<contour>
			<point x="461" y="304" type="line"/>
			<point x="126" y="304" type="line"/>
			<point x="126" y="-61" type="line"/>
			<point x="155" y="-61" type="line"/>
			<point x="155" y="275" type="line"/>
			<point x="432" y="275" type="line"/>
			<point x="432" y="-54" type="line"/>
			<point x="461" y="-54" type="line"/>
		</contour>
		<contour>
			<point x="950" y="642" type="line"/>
			<point x="624" y="642" type="line"/>
			<point x="624" y="613" type="line"/>
			<point x="950" y="613" type="line"/>
		</contour>
		<contour>
			<point x="692" y="824" type="curve"/>
			<point x="661" y="829" type="line"/>
			<point x="636" y="665"/>
			<point x="594" y="510"/>
			<point x="523" y="407" type="curve"/>
			<point x="531" y="403"/>
			<point x="545" y="394"/>
			<point x="550" y="390" type="curve"/>
			<point x="620" y="496"/>
			<point x="665" y="652"/>
		</contour>
		<contour>
			<point x="886" y="628" type="curve"/>
			<point x="856" y="632" type="line"/>
			<point x="810" y="308"/>
			<point x="717" y="84"/>
			<point x="499" y="-46" type="curve"/>
			<point x="506" y="-52"/>
			<point x="517" y="-65"/>
			<point x="521" y="-71" type="curve"/>
			<point x="740" y="71"/>
			<point x="836" y="292"/>
		</contour>
		<contour>
			<point x="640" y="608" type="curve"/>
			<point x="614" y="603" type="line"/>
			<point x="656" y="299"/>
			<point x="752" y="41"/>
			<point x="931" y="-71" type="curve"/>
			<point x="937" y="-63"/>
			<point x="947" y="-53"/>
			<point x="955" y="-47" type="curve"/>
			<point x="776" y="56"/>
			<point x="680" y="313"/>
		</contour>
	</outline>
</glyph>
<glyph name="uni69A3" format="2">
	<advance width="1000"/>
	<unicode hex="69A3"/>
	<note>
		cid21798
	</note>
	<outline>
		<contour>
			<point x="663" y="825" type="curve"/>
			<point x="629" y="831" type="line"/>
			<point x="583" y="759"/>
			<point x="499" y="682"/>
			<point x="373" y="623" type="curve"/>
			<point x="380" y="618"/>
			<point x="389" y="610"/>
			<point x="395" y="602" type="curve"/>
			<point x="525" y="668"/>
			<point x="609" y="745"/>
		</contour>
		<contour>
			<point x="888" y="754" type="line"/>
			<point x="571" y="754" type="line"/>
			<point x="571" y="724" type="line"/>
			<point x="888" y="724" type="line"/>
		</contour>
		<contour>
			<point x="885" y="754" type="line"/>
			<point x="878" y="754" type="line"/>
			<point x="878" y="747" type="line"/>
			<point x="771" y="592"/>
			<point x="574" y="461"/>
			<point x="367" y="408" type="curve"/>
			<point x="373" y="401"/>
			<point x="380" y="389"/>
			<point x="383" y="381" type="curve"/>
			<point x="597" y="440"/>
			<point x="800" y="580"/>
			<point x="909" y="744" type="curve"/>
			<point x="891" y="756" type="line"/>
		</contour>
		<contour>
			<point x="551" y="450" type="curve"/>
			<point x="523" y="457" type="line"/>
			<point x="495" y="393"/>
			<point x="453" y="329"/>
			<point x="405" y="283" type="curve"/>
			<point x="414" y="280"/>
			<point x="427" y="271"/>
			<point x="433" y="267" type="curve"/>
			<point x="477" y="313"/>
			<point x="522" y="383"/>
		</contour>
		<contour>
			<point x="909" y="395" type="line"/>
			<point x="510" y="395" type="line"/>
			<point x="495" y="366" type="line"/>
			<point x="909" y="366" type="line"/>
		</contour>
		<contour>
			<point x="963" y="237" type="line"/>
			<point x="353" y="237" type="line"/>
			<point x="353" y="207" type="line"/>
			<point x="963" y="207" type="line"/>
		</contour>
		<contour>
			<point x="685" y="382" type="line"/>
			<point x="656" y="382" type="line"/>
			<point x="656" y="-9" type="line"/>
			<point x="685" y="-9" type="line"/>
		</contour>
		<contour>
			<point x="460" y="152" type="line"/>
			<point x="431" y="152" type="line"/>
			<point x="431" y="-69" type="line"/>
			<point x="460" y="-69" type="line"/>
		</contour>
		<contour>
			<point x="912" y="152" type="line"/>
			<point x="882" y="152" type="line"/>
			<point x="882" y="-69" type="line"/>
			<point x="912" y="-69" type="line"/>
		</contour>
		<contour>
			<point x="894" y="10" type="line"/>
			<point x="443" y="10" type="line"/>
			<point x="443" y="-19" type="line"/>
			<point x="894" y="-19" type="line"/>
		</contour>
		<contour>
			<point x="555" y="716" type="curve"/>
			<point x="533" y="697" type="line"/>
			<point x="599" y="660"/>
			<point x="675" y="603"/>
			<point x="714" y="565" type="curve"/>
			<point x="735" y="586" type="line"/>
			<point x="697" y="624"/>
			<point x="620" y="679"/>
		</contour>
		<contour>
			<point x="455" y="649" type="curve"/>
			<point x="433" y="631" type="line"/>
			<point x="506" y="585"/>
			<point x="573" y="530"/>
			<point x="606" y="489" type="curve"/>
			<point x="628" y="510" type="line"/>
			<point x="596" y="550"/>
			<point x="529" y="603"/>
		</contour>
		<contour>
			<point x="355" y="617" type="line"/>
			<point x="54" y="617" type="line"/>
			<point x="54" y="587" type="line"/>
			<point x="355" y="587" type="line"/>
		</contour>
		<contour>
			<point x="239" y="831" type="line"/>
			<point x="210" y="831" type="line"/>
			<point x="210" y="-68" type="line"/>
			<point x="239" y="-68" type="line"/>
		</contour>
		<contour>
			<point x="234" y="601" type="curve"/>
			<point x="208" y="609" type="line"/>
			<point x="178" y="451"/>
			<point x="103" y="261"/>
			<point x="35" y="167" type="curve"/>
			<point x="43" y="162"/>
			<point x="53" y="151"/>
			<point x="58" y="143" type="curve"/>
			<point x="129" y="242"/>
			<point x="202" y="443"/>
		</contour>
		<contour>
			<point x="235" y="497" type="curve"/>
			<point x="217" y="482" type="line"/>
			<point x="240" y="451"/>
			<point x="315" y="327"/>
			<point x="336" y="286" type="curve"/>
			<point x="358" y="312" type="line"/>
			<point x="339" y="343"/>
			<point x="257" y="469"/>
		</contour>
	</outline>
</glyph>
<glyph name="uni6AE5" format="2">
	<advance width="1000" height="1000"/>
	<unicode hex="6AE5"/>
	<note>
		cid22383
	</note>
	<outline>
		<contour>
			<point x="708" y="589" type="line"/>
			<point x="429" y="589" type="line"/>
			<point x="429" y="559" type="line"/>
			<point x="708" y="559" type="line"/>
		</contour>
		<contour>
			<point x="679" y="465" type="line"/>
			<point x="450" y="465" type="line"/>
			<point x="450" y="436" type="line"/>
			<point x="679" y="436" type="line"/>
		</contour>
		<contour>
			<point x="950" y="488" type="line"/>
			<point x="709" y="488" type="line"/>
			<point x="709" y="459" type="line"/>
			<point x="950" y="459" type="line"/>
		</contour>
		<contour>
			<point x="485" y="217" type="line"/>
			<point x="485" y="334" type="line"/>
			<point x="644" y="334" type="line"/>
			<point x="644" y="217" type="line"/>
		</contour>
		<contour>
			<point x="673" y="363" type="line"/>
			<point x="456" y="363" type="line"/>
			<point x="456" y="188" type="line"/>
			<point x="673" y="188" type="line"/>
		</contour>
		<contour>
			<point x="884" y="-24" type="curve" smooth="yes"/>
			<point x="884" y="670" type="line"/>
			<point x="855" y="670" type="line"/>
			<point x="855" y="-25" type="line" smooth="yes"/>
			<point x="855" y="-37"/>
			<point x="852" y="-40"/>
			<point x="841" y="-40" type="curve" smooth="yes"/>
			<point x="830" y="-41"/>
			<point x="796" y="-41"/>
			<point x="755" y="-40" type="curve"/>
			<point x="760" y="-49"/>
			<point x="765" y="-64"/>
			<point x="767" y="-71" type="curve"/>
			<point x="815" y="-71"/>
			<point x="845" y="-70"/>
			<point x="862" y="-65" type="curve" smooth="yes"/>
			<point x="877" y="-60"/>
			<point x="884" y="-49"/>
		</contour>
		<contour>
			<point x="402" y="-29" type="curve"/>
			<point x="411" y="-58" type="line"/>
			<point x="496" y="-42"/>
			<point x="607" y="-19"/>
			<point x="717" y="3" type="curve"/>
			<point x="715" y="31" type="line"/>
			<point x="596" y="8"/>
			<point x="480" y="-15"/>
		</contour>
		<contour>
			<point x="498" y="159" type="curve"/>
			<point x="472" y="153" type="line"/>
			<point x="492" y="107"/>
			<point x="507" y="48"/>
			<point x="506" y="8" type="curve"/>
			<point x="534" y="16" type="line"/>
			<point x="534" y="53"/>
			<point x="520" y="112"/>
		</contour>
		<contour>
			<point x="748" y="368" type="curve"/>
			<point x="721" y="362" type="line"/>
			<point x="754" y="289"/>
			<point x="781" y="195"/>
			<point x="786" y="137" type="curve"/>
			<point x="814" y="144" type="line"/>
			<point x="809" y="202"/>
			<point x="781" y="295"/>
		</contour>
		<contour>
			<point x="652" y="157" type="curve"/>
			<point x="623" y="166" type="line"/>
			<point x="614" y="120"/>
			<point x="600" y="64"/>
			<point x="586" y="23" type="curve"/>
			<point x="610" y="14" type="line"/>
			<point x="625" y="54"/>
			<point x="641" y="109"/>
		</contour>
		<contour>
			<point x="946" y="741" type="line"/>
			<point x="395" y="741" type="line"/>
			<point x="395" y="712" type="line"/>
			<point x="946" y="712" type="line"/>
		</contour>
		<contour>
			<point x="410" y="470" type="curve" smooth="yes"/>
			<point x="410" y="741" type="line"/>
			<point x="380" y="741" type="line"/>
			<point x="380" y="470" type="line" smooth="yes"/>
			<point x="380" y="224"/>
			<point x="351" y="65"/>
			<point x="284" y="-54" type="curve"/>
			<point x="291" y="-57"/>
			<point x="303" y="-65"/>
			<point x="308" y="-70" type="curve"/>
			<point x="379" y="57"/>
			<point x="410" y="221"/>
		</contour>
		<contour>
			<point x="579" y="670" type="line"/>
			<point x="550" y="670" type="line"/>
			<point x="550" y="450" type="line"/>
			<point x="579" y="450" type="line"/>
		</contour>
		<contour>
			<point x="354" y="608" type="line"/>
			<point x="58" y="608" type="line"/>
			<point x="58" y="578" type="line"/>
			<point x="354" y="578" type="line"/>
		</contour>
		<contour>
			<point x="229" y="831" type="line"/>
			<point x="199" y="831" type="line"/>
			<point x="199" y="-68" type="line"/>
			<point x="229" y="-68" type="line"/>
		</contour>
		<contour>
			<point x="225" y="591" type="curve"/>
			<point x="198" y="598" type="line"/>
			<point x="171" y="439"/>
			<point x="104" y="245"/>
			<point x="41" y="150" type="curve"/>
			<point x="48" y="145"/>
			<point x="58" y="135"/>
			<point x="64" y="128" type="curve"/>
			<point x="129" y="229"/>
			<point x="195" y="433"/>
		</contour>
		<contour>
			<point x="224" y="469" type="curve"/>
			<point x="203" y="453" type="line"/>
			<point x="229" y="425"/>
			<point x="303" y="325"/>
			<point x="324" y="289" type="curve"/>
			<point x="348" y="314" type="line"/>
			<point x="329" y="340"/>
			<point x="246" y="444"/>
		</contour>
		<contour>
			<point x="670" y="830" type="line"/>
			<point x="640" y="830" type="line"/>
			<point x="640" y="725" type="line"/>
			<point x="670" y="725" type="line"/>
		</contour>
	</outline>
</glyph>
<glyph name="uni6C26" format="2">
	<advance width="1000"/>
	<unicode hex="6C26"/>
	<note>
		cid22987
	</note>
	<outline>
		<contour>
			<point x="395" y="485" type="line"/>
			<point x="366" y="485" type="line"/>
			<point x="366" y="378" type="line"/>
			<point x="395" y="378" type="line"/>
		</contour>
		<contour>
			<point x="927" y="737" type="line"/>
			<point x="234" y="737" type="line"/>
			<point x="234" y="708" type="line"/>
			<point x="927" y="708" type="line"/>
		</contour>
		<contour>
			<point x="849" y="638" type="line"/>
			<point x="257" y="638" type="line"/>
			<point x="257" y="609" type="line"/>
			<point x="849" y="609" type="line"/>
		</contour>
		<contour>
			<point x="761" y="536" type="line"/>
			<point x="138" y="536" type="line"/>
			<point x="138" y="507" type="line"/>
			<point x="761" y="507" type="line"/>
		</contour>
		<contour>
			<point x="302" y="821" type="curve"/>
			<point x="273" y="829" type="line"/>
			<point x="223" y="712"/>
			<point x="140" y="600"/>
			<point x="51" y="525" type="curve"/>
			<point x="59" y="521"/>
			<point x="72" y="511"/>
			<point x="77" y="506" type="curve"/>
			<point x="164" y="583"/>
			<point x="247" y="698"/>
		</contour>
		<contour>
			<point x="774" y="536" type="curve"/>
			<point x="745" y="536" type="line"/>
			<point x="757" y="185"/>
			<point x="779" y="-72"/>
			<point x="901" y="-72" type="curve" smooth="yes"/>
			<point x="946" y="-72"/>
			<point x="955" y="-29"/>
			<point x="960" y="100" type="curve"/>
			<point x="953" y="102"/>
			<point x="941" y="108"/>
			<point x="934" y="113" type="curve"/>
			<point x="932" y="19"/>
			<point x="925" y="-44"/>
			<point x="903" y="-44" type="curve" smooth="yes"/>
			<point x="809" y="-44"/>
			<point x="783" y="247"/>
		</contour>
		<contour>
			<point x="692" y="386" type="line"/>
			<point x="83" y="386" type="line"/>
			<point x="83" y="357" type="line"/>
			<point x="692" y="357" type="line"/>
		</contour>
		<contour>
			<point x="152" y="303" type="curve"/>
			<point x="131" y="285" type="line"/>
			<point x="191" y="252"/>
			<point x="260" y="199"/>
			<point x="293" y="158" type="curve"/>
			<point x="315" y="178" type="line"/>
			<point x="281" y="218"/>
			<point x="212" y="270"/>
		</contour>
		<contour>
			<point x="360" y="359" type="curve"/>
			<point x="332" y="373" type="line"/>
			<point x="302" y="336"/>
			<point x="247" y="281"/>
			<point x="206" y="248" type="curve"/>
			<point x="230" y="234" type="line"/>
			<point x="272" y="266"/>
			<point x="322" y="313"/>
		</contour>
		<contour>
			<point x="502" y="319" type="curve"/>
			<point x="476" y="331" type="line"/>
			<point x="398" y="221"/>
			<point x="249" y="131"/>
			<point x="91" y="83" type="curve"/>
			<point x="99" y="77"/>
			<point x="107" y="66"/>
			<point x="112" y="59" type="curve"/>
			<point x="270" y="110"/>
			<point x="423" y="206"/>
		</contour>
		<contour>
			<point x="606" y="246" type="curve"/>
			<point x="579" y="259" type="line"/>
			<point x="483" y="118"/>
			<point x="294" y="7"/>
			<point x="80" y="-47" type="curve"/>
			<point x="86" y="-54"/>
			<point x="94" y="-65"/>
			<point x="98" y="-72" type="curve"/>
			<point x="314" y="-14"/>
			<point x="507" y="99"/>
		</contour>
		<contour>
			<point x="440" y="109" type="curve"/>
			<point x="421" y="88" type="line"/>
			<point x="522" y="44"/>
			<point x="631" y="-19"/>
			<point x="704" y="-74" type="curve"/>
			<point x="724" y="-49" type="line"/>
			<point x="648" y="4"/>
			<point x="538" y="65"/>
		</contour>
	</outline>
</glyph>
<glyph name="uni78B0" format="2">
	<advance width="1000" height="1000"/>
	<unicode hex="78B0"/>
	<note>
		cid28570
	</note>
	<outline>
		<contour>
			<point x="394" y="757" type="line"/>
			<point x="49" y="757" type="line"/>
			<point x="49" y="727" type="line"/>
			<point x="394" y="727" type="line"/>
		</contour>
		<contour>
			<point x="347" y="465" type="line"/>
			<point x="143" y="465" type="line"/>
			<point x="143" y="435" type="line"/>
			<point x="318" y="435" type="line"/>
			<point x="318" y="97" type="line"/>
			<point x="143" y="97" type="line"/>
			<point x="143" y="68" type="line"/>
			<point x="347" y="68" type="line"/>
		</contour>
		<contour>
			<point x="217" y="743" type="curve"/>
			<point x="186" y="747" type="line"/>
			<point x="161" y="556"/>
			<point x="118" y="375"/>
			<point x="41" y="256" type="curve"/>
			<point x="49" y="251"/>
			<point x="62" y="242"/>
			<point x="68" y="237" type="curve"/>
			<point x="143" y="362"/>
			<point x="188" y="543"/>
		</contour>
		<contour>
			<point x="160" y="465" type="line"/>
			<point x="131" y="465" type="line"/>
			<point x="131" y="-25" type="line"/>
			<point x="160" y="-25" type="line"/>
		</contour>
		<contour>
			<point x="938" y="624" type="line"/>
			<point x="399" y="624" type="line"/>
			<point x="399" y="595" type="line"/>
			<point x="938" y="595" type="line"/>
		</contour>
		<contour>
			<point x="952" y="-6" type="line"/>
			<point x="365" y="-6" type="line"/>
			<point x="365" y="-35" type="line"/>
			<point x="952" y="-35" type="line"/>
		</contour>
		<contour>
			<point x="609" y="612" type="line"/>
			<point x="579" y="612" type="line"/>
			<point x="579" y="-19" type="line"/>
			<point x="609" y="-19" type="line"/>
		</contour>
		<contour>
			<point x="745" y="612" type="line"/>
			<point x="716" y="612" type="line"/>
			<point x="716" y="-19" type="line"/>
			<point x="745" y="-19" type="line"/>
		</contour>
		<contour>
			<point x="516" y="829" type="curve"/>
			<point x="491" y="820" type="line"/>
			<point x="525" y="766"/>
			<point x="558" y="691"/>
			<point x="569" y="644" type="curve"/>
			<point x="594" y="655" type="line"/>
			<point x="584" y="701"/>
			<point x="551" y="774"/>
		</contour>
		<contour>
			<point x="848" y="817" type="curve"/>
			<point x="819" y="830" type="line"/>
			<point x="798" y="778"/>
			<point x="759" y="700"/>
			<point x="728" y="653" type="curve"/>
			<point x="753" y="642" type="line"/>
			<point x="783" y="688"/>
			<point x="820" y="760"/>
		</contour>
		<contour>
			<point x="465" y="510" type="line"/>
			<point x="435" y="510" type="line"/>
			<point x="435" y="127" type="line"/>
			<point x="599" y="127" type="line"/>
			<point x="599" y="156" type="line"/>
			<point x="465" y="156" type="line"/>
		</contour>
		<contour>
			<point x="893" y="510" type="line"/>
			<point x="864" y="510" type="line"/>
			<point x="864" y="156" type="line"/>
			<point x="731" y="156" type="line"/>
			<point x="731" y="127" type="line"/>
			<point x="893" y="127" type="line"/>
		</contour>
	</outline>
</glyph>
<glyph name="uni7DD4" format="2">
	<advance width="1000" height="1000"/>
	<unicode hex="7DD4"/>
	<note>
		cid31243
	</note>
	<outline>
		<contour>
			<point x="241" y="817" type="curve"/>
			<point x="213" y="831" type="line"/>
			<point x="186" y="767"/>
			<point x="137" y="669"/>
			<point x="101" y="613" type="curve"/>
			<point x="124" y="601" type="line"/>
			<point x="161" y="656"/>
			<point x="208" y="747"/>
		</contour>
		<contour>
			<point x="347" y="708" type="curve"/>
			<point x="318" y="721" type="line"/>
			<point x="253" y="597"/>
			<point x="168" y="464"/>
			<point x="96" y="373" type="curve"/>
			<point x="119" y="361" type="line"/>
			<point x="190" y="450"/>
			<point x="278" y="584"/>
		</contour>
		<contour>
			<point x="69" y="663" type="curve"/>
			<point x="49" y="647" type="line"/>
			<point x="105" y="597"/>
			<point x="166" y="526"/>
			<point x="194" y="479" type="curve"/>
			<point x="214" y="499" type="line"/>
			<point x="186" y="544"/>
			<point x="125" y="613"/>
		</contour>
		<contour>
			<point x="302" y="508" type="curve"/>
			<point x="276" y="498" type="line"/>
			<point x="317" y="434"/>
			<point x="358" y="348"/>
			<point x="371" y="294" type="curve"/>
			<point x="401" y="308" type="line"/>
			<point x="385" y="360"/>
			<point x="344" y="445"/>
		</contour>
		<contour>
			<point x="35" y="375" type="curve"/>
			<point x="39" y="344" type="line"/>
			<point x="130" y="349"/>
			<point x="252" y="358"/>
			<point x="356" y="366" type="curve"/>
			<point x="357" y="394" type="line"/>
			<point x="250" y="387"/>
			<point x="127" y="380"/>
		</contour>
		<contour>
			<point x="328" y="277" type="curve"/>
			<point x="302" y="270" type="line"/>
			<point x="328" y="211"/>
			<point x="351" y="133"/>
			<point x="357" y="83" type="curve"/>
			<point x="385" y="91" type="line"/>
			<point x="378" y="141"/>
			<point x="356" y="218"/>
		</contour>
		<contour>
			<point x="143" y="270" type="curve"/>
			<point x="113" y="275" type="line"/>
			<point x="98" y="185"/>
			<point x="76" y="95"/>
			<point x="39" y="32" type="curve"/>
			<point x="47" y="29"/>
			<point x="62" y="22"/>
			<point x="67" y="18" type="curve"/>
			<point x="101" y="82"/>
			<point x="127" y="176"/>
		</contour>
		<contour>
			<point x="240" y="374" type="line"/>
			<point x="211" y="374" type="line"/>
			<point x="211" y="-70" type="line"/>
			<point x="240" y="-70" type="line"/>
		</contour>
		<contour>
			<point x="788" y="777" type="curve"/>
			<point x="764" y="763" type="line"/>
			<point x="830" y="696"/>
			<point x="903" y="603"/>
			<point x="936" y="544" type="curve"/>
			<point x="962" y="563" type="line"/>
			<point x="928" y="620"/>
			<point x="854" y="712"/>
		</contour>
		<contour>
			<point x="678" y="831" type="line"/>
			<point x="649" y="831" type="line"/>
			<point x="649" y="487" type="line"/>
			<point x="678" y="487" type="line"/>
		</contour>
		<contour>
			<point x="583" y="365" type="line"/>
			<point x="554" y="365" type="line"/>
			<point x="554" y="51" type="line"/>
			<point x="583" y="51" type="line"/>
		</contour>
		<contour>
			<point x="910" y="-18" type="curve" smooth="yes"/>
			<point x="910" y="506" type="line"/>
			<point x="881" y="506" type="line"/>
			<point x="881" y="-19" type="line" smooth="yes"/>
			<point x="881" y="-34"/>
			<point x="876" y="-39"/>
			<point x="859" y="-40" type="curve" smooth="yes"/>
			<point x="842" y="-41"/>
			<point x="788" y="-41"/>
			<point x="716" y="-40" type="curve"/>
			<point x="722" y="-49"/>
			<point x="727" y="-61"/>
			<point x="729" y="-68" type="curve"/>
			<point x="811" y="-68"/>
			<point x="857" y="-69"/>
			<point x="881" y="-64" type="curve" smooth="yes"/>
			<point x="902" y="-58"/>
			<point x="910" y="-46"/>
		</contour>
		<contour>
			<point x="562" y="767" type="curve"/>
			<point x="533" y="776" type="line"/>
			<point x="499" y="696"/>
			<point x="438" y="608"/>
			<point x="374" y="547" type="curve"/>
			<point x="383" y="542"/>
			<point x="395" y="533"/>
			<point x="401" y="527" type="curve"/>
			<point x="463" y="590"/>
			<point x="526" y="683"/>
		</contour>
		<contour>
			<point x="894" y="506" type="line"/>
			<point x="427" y="506" type="line"/>
			<point x="427" y="-70" type="line"/>
			<point x="456" y="-70" type="line"/>
			<point x="456" y="476" type="line"/>
			<point x="894" y="476" type="line"/>
		</contour>
		<contour>
			<point x="783" y="365" type="line"/>
			<point x="570" y="365" type="line"/>
			<point x="570" y="335" type="line"/>
			<point x="754" y="335" type="line"/>
			<point x="754" y="136" type="line"/>
			<point x="570" y="136" type="line"/>
			<point x="570" y="107" type="line"/>
			<point x="783" y="107" type="line"/>
		</contour>
	</outline>
</glyph>
<glyph name="uni7FF1" format="2">
	<advance width="1000"/>
	<unicode hex="7FF1"/>
	<note>
		cid32230
	</note>
	<outline>
		<contour>
			<point x="129" y="474" type="line"/>
			<point x="129" y="576" type="line"/>
			<point x="426" y="576" type="line"/>
			<point x="426" y="474" type="line"/>
		</contour>
		<contour>
			<point x="129" y="606" type="line"/>
			<point x="129" y="706" type="line"/>
			<point x="426" y="706" type="line"/>
			<point x="426" y="606" type="line"/>
		</contour>
		<contour>
			<point x="455" y="735" type="line"/>
			<point x="99" y="735" type="line"/>
			<point x="99" y="445" type="line"/>
			<point x="455" y="445" type="line"/>
		</contour>
		<contour>
			<point x="293" y="823" type="curve"/>
			<point x="264" y="832" type="line"/>
			<point x="254" y="802"/>
			<point x="234" y="755"/>
			<point x="220" y="725" type="curve"/>
			<point x="247" y="717" type="line"/>
			<point x="263" y="746"/>
			<point x="278" y="785"/>
		</contour>
		<contour>
			<point x="488" y="352" type="line"/>
			<point x="51" y="352" type="line"/>
			<point x="51" y="323" type="line"/>
			<point x="488" y="323" type="line"/>
		</contour>
		<contour>
			<point x="447" y="129" type="line"/>
			<point x="107" y="129" type="line"/>
			<point x="107" y="99" type="line"/>
			<point x="447" y="99" type="line"/>
		</contour>
		<contour>
			<point x="291" y="244" type="line"/>
			<point x="262" y="244" type="line"/>
			<point x="262" y="-69" type="line"/>
			<point x="291" y="-69" type="line"/>
		</contour>
		<contour>
			<point x="282" y="455" type="curve"/>
			<point x="251" y="455" type="line"/>
			<point x="224" y="366"/>
			<point x="163" y="216"/>
			<point x="40" y="148" type="curve"/>
			<point x="47" y="143"/>
			<point x="58" y="134"/>
			<point x="63" y="129" type="curve"/>
			<point x="187" y="202"/>
			<point x="251" y="351"/>
		</contour>
		<contour>
			<point x="335" y="345" type="curve"/>
			<point x="311" y="332" type="line"/>
			<point x="370" y="271"/>
			<point x="424" y="203"/>
			<point x="449" y="156" type="curve"/>
			<point x="475" y="173" type="line"/>
			<point x="448" y="220"/>
			<point x="394" y="287"/>
		</contour>
		<contour>
			<point x="686" y="776" type="line"/>
			<point x="496" y="776" type="line"/>
			<point x="496" y="747" type="line"/>
			<point x="686" y="747" type="line"/>
		</contour>
		<contour>
			<point x="696" y="-16" type="curve" smooth="yes"/>
			<point x="696" y="776" type="line"/>
			<point x="667" y="776" type="line"/>
			<point x="667" y="-16" type="line" smooth="yes"/>
			<point x="667" y="-31"/>
			<point x="662" y="-36"/>
			<point x="648" y="-36" type="curve" smooth="yes"/>
			<point x="634" y="-36"/>
			<point x="586" y="-38"/>
			<point x="529" y="-36" type="curve"/>
			<point x="534" y="-46"/>
			<point x="539" y="-61"/>
			<point x="542" y="-68" type="curve"/>
			<point x="606" y="-68"/>
			<point x="647" y="-68"/>
			<point x="668" y="-63" type="curve" smooth="yes"/>
			<point x="689" y="-58"/>
			<point x="696" y="-44"/>
		</contour>
		<contour>
			<point x="899" y="776" type="line"/>
			<point x="713" y="776" type="line"/>
			<point x="713" y="747" type="line"/>
			<point x="899" y="747" type="line"/>
		</contour>
		<contour>
			<point x="918" y="-16" type="curve" smooth="yes"/>
			<point x="918" y="776" type="line"/>
			<point x="889" y="776" type="line"/>
			<point x="889" y="-16" type="line" smooth="yes"/>
			<point x="889" y="-31"/>
			<point x="884" y="-36"/>
			<point x="869" y="-36" type="curve" smooth="yes"/>
			<point x="855" y="-36"/>
			<point x="804" y="-38"/>
			<point x="745" y="-36" type="curve"/>
			<point x="751" y="-46"/>
			<point x="756" y="-61"/>
			<point x="758" y="-68" type="curve"/>
			<point x="825" y="-68"/>
			<point x="869" y="-68"/>
			<point x="889" y="-63" type="curve" smooth="yes"/>
			<point x="911" y="-57"/>
			<point x="918" y="-44"/>
		</contour>
		<contour>
			<point x="656" y="655" type="curve"/>
			<point x="628" y="663" type="line"/>
			<point x="592" y="593"/>
			<point x="537" y="520"/>
			<point x="484" y="469" type="curve"/>
			<point x="491" y="464"/>
			<point x="503" y="454"/>
			<point x="508" y="449" type="curve"/>
			<point x="559" y="502"/>
			<point x="617" y="581"/>
		</contour>
		<contour>
			<point x="881" y="655" type="curve"/>
			<point x="853" y="663" type="line"/>
			<point x="818" y="592"/>
			<point x="764" y="520"/>
			<point x="709" y="469" type="curve"/>
			<point x="716" y="464"/>
			<point x="728" y="453"/>
			<point x="732" y="449" type="curve"/>
			<point x="786" y="502"/>
			<point x="843" y="580"/>
		</contour>
		<contour>
			<point x="662" y="395" type="curve"/>
			<point x="634" y="403" type="line"/>
			<point x="598" y="320"/>
			<point x="541" y="235"/>
			<point x="482" y="177" type="curve"/>
			<point x="490" y="172"/>
			<point x="501" y="161"/>
			<point x="506" y="156" type="curve"/>
			<point x="563" y="218"/>
			<point x="623" y="308"/>
		</contour>
		<contour>
			<point x="884" y="400" type="curve"/>
			<point x="856" y="408" type="line"/>
			<point x="820" y="322"/>
			<point x="765" y="234"/>
			<point x="708" y="173" type="curve"/>
			<point x="715" y="169"/>
			<point x="727" y="158"/>
			<point x="731" y="153" type="curve"/>
			<point x="787" y="217"/>
			<point x="845" y="310"/>
		</contour>
	</outline>
</glyph>
<glyph name="uni8054" format="2">
	<advance width="1000"/>
	<unicode hex="8054"/>
	<note>
		cid32429
	</note>
	<outline>
		<contour>
			<point x="903" y="602" type="line"/>
			<point x="430" y="602" type="line"/>
			<point x="430" y="572" type="line"/>
			<point x="903" y="572" type="line"/>
		</contour>
		<contour>
			<point x="940" y="352" type="line"/>
			<point x="394" y="352" type="line"/>
			<point x="394" y="322" type="line"/>
			<point x="940" y="322" type="line"/>
		</contour>
		<contour>
			<point x="501" y="819" type="curve"/>
			<point x="477" y="809" type="line"/>
			<point x="516" y="748"/>
			<point x="549" y="676"/>
			<point x="563" y="622" type="curve"/>
			<point x="590" y="635" type="line"/>
			<point x="576" y="688"/>
			<point x="541" y="759"/>
		</contour>
		<contour>
			<point x="857" y="814" type="curve"/>
			<point x="827" y="826" type="line"/>
			<point x="805" y="764"/>
			<point x="770" y="690"/>
			<point x="737" y="634" type="curve"/>
			<point x="761" y="622" type="line"/>
			<point x="795" y="679"/>
			<point x="832" y="753"/>
		</contour>
		<contour>
			<point x="677" y="435" type="curve" smooth="yes"/>
			<point x="677" y="591" type="line"/>
			<point x="648" y="591" type="line"/>
			<point x="648" y="436" type="line" smooth="yes"/>
			<point x="648" y="294"/>
			<point x="637" y="103"/>
			<point x="383" y="-51" type="curve"/>
			<point x="389" y="-56"/>
			<point x="398" y="-65"/>
			<point x="403" y="-72" type="curve"/>
			<point x="663" y="89"/>
			<point x="677" y="286"/>
		</contour>
		<contour>
			<point x="682" y="347" type="curve"/>
			<point x="656" y="340" type="line"/>
			<point x="698" y="159"/>
			<point x="791" y="8"/>
			<point x="931" y="-65" type="curve"/>
			<point x="936" y="-57"/>
			<point x="945" y="-47"/>
			<point x="952" y="-41" type="curve"/>
			<point x="814" y="25"/>
			<point x="723" y="173"/>
		</contour>
		<contour>
			<point x="415" y="782" type="line"/>
			<point x="52" y="782" type="line"/>
			<point x="52" y="753" type="line"/>
			<point x="415" y="753" type="line"/>
		</contour>
		<contour>
			<point x="344" y="576" type="line"/>
			<point x="136" y="576" type="line"/>
			<point x="136" y="547" type="line"/>
			<point x="344" y="547" type="line"/>
		</contour>
		<contour>
			<point x="344" y="367" type="line"/>
			<point x="136" y="367" type="line"/>
			<point x="136" y="337" type="line"/>
			<point x="344" y="337" type="line"/>
		</contour>
		<contour>
			<point x="148" y="771" type="line"/>
			<point x="119" y="771" type="line"/>
			<point x="119" y="119" type="line"/>
			<point x="148" y="119" type="line"/>
		</contour>
		<contour>
			<point x="364" y="771" type="line"/>
			<point x="334" y="771" type="line"/>
			<point x="334" y="-71" type="line"/>
			<point x="364" y="-71" type="line"/>
		</contour>
		<contour>
			<point x="47" y="117" type="curve"/>
			<point x="54" y="86" type="line"/>
			<point x="132" y="100"/>
			<point x="244" y="120"/>
			<point x="352" y="138" type="curve"/>
			<point x="350" y="165" type="line"/>
			<point x="237" y="147"/>
			<point x="121" y="127"/>
		</contour>
	</outline>
</glyph>
<glyph name="uni8BA0" format="2">
	<advance width="1000" height="1000"/>
	<unicode hex="8BA0"/>
	<note>
		cid38429
	</note>
	<outline>
		<contour>
			<point x="162" y="807" type="curve"/>
			<point x="142" y="788" type="line"/>
			<point x="219" y="737"/>
			<point x="290" y="670"/>
			<point x="326" y="614" type="curve"/>
			<point x="347" y="635" type="line"/>
			<point x="311" y="689"/>
			<point x="240" y="755"/>
		</contour>
		<contour>
			<point x="301" y="505" type="line"/>
			<point x="60" y="505" type="line"/>
			<point x="60" y="475" type="line"/>
			<point x="301" y="475" type="line"/>
		</contour>
		<contour>
			<point x="309" y="505" type="line"/>
			<point x="280" y="505" type="line"/>
			<point x="280" y="13" type="line"/>
			<point x="309" y="13" type="line"/>
		</contour>
		<contour>
			<point x="186" y="-14" type="curve"/>
			<point x="202" y="-40" type="line"/>
			<point x="283" y="-6"/>
			<point x="392" y="44"/>
			<point x="484" y="89" type="curve"/>
			<point x="478" y="117" type="line"/>
			<point x="384" y="71"/>
			<point x="272" y="21"/>
		</contour>
	</outline>
</glyph>
<glyph name="uni8E2B" format="2">
	<advance width="1000" height="1000"/>
	<unicode hex="8E2B"/>
	<note>
		cid39354
	</note>
	<outline>
		<contour>
			<point x="131" y="531" type="line"/>
			<point x="131" y="753" type="line"/>
			<point x="346" y="753" type="line"/>
			<point x="346" y="531" type="line"/>
		</contour>
		<contour>
			<point x="376" y="782" type="line"/>
			<point x="101" y="782" type="line"/>
			<point x="101" y="502" type="line"/>
			<point x="376" y="502" type="line"/>
		</contour>
		<contour>
			<point x="261" y="522" type="line"/>
			<point x="231" y="522" type="line"/>
			<point x="231" y="54" type="line"/>
			<point x="261" y="54" type="line"/>
		</contour>
		<contour>
			<point x="136" y="384" type="line"/>
			<point x="107" y="384" type="line"/>
			<point x="107" y="23" type="line"/>
			<point x="136" y="23" type="line"/>
		</contour>
		<contour>
			<point x="49" y="19" type="curve"/>
			<point x="58" y="-11" type="line"/>
			<point x="150" y="15"/>
			<point x="280" y="50"/>
			<point x="404" y="83" type="curve"/>
			<point x="401" y="112" type="line"/>
			<point x="270" y="77"/>
			<point x="136" y="40"/>
		</contour>
		<contour>
			<point x="384" y="329" type="line"/>
			<point x="242" y="329" type="line"/>
			<point x="242" y="300" type="line"/>
			<point x="384" y="300" type="line"/>
		</contour>
		<contour>
			<point x="938" y="624" type="line"/>
			<point x="399" y="624" type="line"/>
			<point x="399" y="595" type="line"/>
			<point x="938" y="595" type="line"/>
		</contour>
		<contour>
			<point x="952" y="-6" type="line"/>
			<point x="365" y="-6" type="line"/>
			<point x="365" y="-35" type="line"/>
			<point x="952" y="-35" type="line"/>
		</contour>
		<contour>
			<point x="609" y="612" type="line"/>
			<point x="579" y="612" type="line"/>
			<point x="579" y="-19" type="line"/>
			<point x="609" y="-19" type="line"/>
		</contour>
		<contour>
			<point x="745" y="612" type="line"/>
			<point x="716" y="612" type="line"/>
			<point x="716" y="-19" type="line"/>
			<point x="745" y="-19" type="line"/>
		</contour>
		<contour>
			<point x="516" y="829" type="curve"/>
			<point x="491" y="820" type="line"/>
			<point x="525" y="766"/>
			<point x="558" y="691"/>
			<point x="569" y="644" type="curve"/>
			<point x="594" y="655" type="line"/>
			<point x="584" y="701"/>
			<point x="551" y="774"/>
		</contour>
		<contour>
			<point x="848" y="817" type="curve"/>
			<point x="819" y="830" type="line"/>
			<point x="798" y="778"/>
			<point x="759" y="700"/>
			<point x="728" y="653" type="curve"/>
			<point x="753" y="642" type="line"/>
			<point x="783" y="688"/>
			<point x="820" y="760"/>
		</contour>
		<contour>
			<point x="465" y="510" type="line"/>
			<point x="435" y="510" type="line"/>
			<point x="435" y="127" type="line"/>
			<point x="599" y="127" type="line"/>
			<point x="599" y="156" type="line"/>
			<point x="465" y="156" type="line"/>
		</contour>
		<contour>
			<point x="893" y="510" type="line"/>
			<point x="864" y="510" type="line"/>
			<point x="864" y="156" type="line"/>
			<point x="731" y="156" type="line"/>
			<point x="731" y="127" type="line"/>
			<point x="893" y="127" type="line"/>
		</contour>
	</outline>
</glyph>
<glyph name="uni8E66" format="2">
	<advance width="1000" height="1000"/>
	<unicode hex="8E66"/>
	<note>
		cid39464
	</note>
	<outline>
		<contour>
			<point x="666" y="825" type="line"/>
			<point x="636" y="825" type="line"/>
			<point x="636" y="618" type="line"/>
			<point x="666" y="618" type="line"/>
		</contour>
		<contour>
			<point x="426" y="785" type="line"/>
			<point x="396" y="785" type="line"/>
			<point x="396" y="604" type="line"/>
			<point x="920" y="604" type="line"/>
			<point x="920" y="785" type="line"/>
			<point x="891" y="785" type="line"/>
			<point x="891" y="633" type="line"/>
			<point x="426" y="633" type="line"/>
		</contour>
		<contour>
			<point x="434" y="270" type="curve" smooth="yes"/>
			<point x="434" y="526" type="line"/>
			<point x="405" y="526" type="line"/>
			<point x="405" y="270" type="line" smooth="yes"/>
			<point x="405" y="168"/>
			<point x="394" y="39"/>
			<point x="311" y="-53" type="curve"/>
			<point x="318" y="-57"/>
			<point x="329" y="-65"/>
			<point x="334" y="-70" type="curve"/>
			<point x="421" y="25"/>
			<point x="434" y="164"/>
		</contour>
		<contour>
			<point x="606" y="526" type="line"/>
			<point x="420" y="526" type="line"/>
			<point x="420" y="497" type="line"/>
			<point x="606" y="497" type="line"/>
		</contour>
		<contour>
			<point x="606" y="370" type="line"/>
			<point x="420" y="370" type="line"/>
			<point x="420" y="340" type="line"/>
			<point x="606" y="340" type="line"/>
		</contour>
		<contour>
			<point x="606" y="211" type="line"/>
			<point x="420" y="211" type="line"/>
			<point x="420" y="181" type="line"/>
			<point x="606" y="181" type="line"/>
		</contour>
		<contour>
			<point x="617" y="-21" type="curve" smooth="yes"/>
			<point x="617" y="526" type="line"/>
			<point x="587" y="526" type="line"/>
			<point x="587" y="-22" type="line" smooth="yes"/>
			<point x="587" y="-33"/>
			<point x="584" y="-36"/>
			<point x="574" y="-36" type="curve" smooth="yes"/>
			<point x="563" y="-37"/>
			<point x="529" y="-37"/>
			<point x="487" y="-36" type="curve"/>
			<point x="492" y="-45"/>
			<point x="497" y="-58"/>
			<point x="499" y="-66" type="curve"/>
			<point x="548" y="-66"/>
			<point x="578" y="-65"/>
			<point x="595" y="-61" type="curve" smooth="yes"/>
			<point x="612" y="-55"/>
			<point x="617" y="-44"/>
		</contour>
		<contour>
			<point x="719" y="260" type="curve" smooth="yes"/>
			<point x="719" y="526" type="line"/>
			<point x="689" y="526" type="line"/>
			<point x="689" y="260" type="line" smooth="yes"/>
			<point x="689" y="165"/>
			<point x="683" y="43"/>
			<point x="624" y="-45" type="curve"/>
			<point x="632" y="-48"/>
			<point x="644" y="-56"/>
			<point x="649" y="-62" type="curve"/>
			<point x="709" y="29"/>
			<point x="719" y="161"/>
		</contour>
		<contour>
			<point x="903" y="526" type="line"/>
			<point x="708" y="526" type="line"/>
			<point x="708" y="497" type="line"/>
			<point x="903" y="497" type="line"/>
		</contour>
		<contour>
			<point x="903" y="370" type="line"/>
			<point x="708" y="370" type="line"/>
			<point x="708" y="340" type="line"/>
			<point x="903" y="340" type="line"/>
		</contour>
		<contour>
			<point x="903" y="211" type="line"/>
			<point x="708" y="211" type="line"/>
			<point x="708" y="181" type="line"/>
			<point x="903" y="181" type="line"/>
		</contour>
		<contour>
			<point x="919" y="-25" type="curve" smooth="yes"/>
			<point x="919" y="526" type="line"/>
			<point x="890" y="526" type="line"/>
			<point x="890" y="-26" type="line" smooth="yes"/>
			<point x="890" y="-37"/>
			<point x="887" y="-40"/>
			<point x="876" y="-40" type="curve" smooth="yes"/>
			<point x="865" y="-41"/>
			<point x="829" y="-41"/>
			<point x="784" y="-40" type="curve"/>
			<point x="789" y="-49"/>
			<point x="795" y="-63"/>
			<point x="797" y="-70" type="curve"/>
			<point x="848" y="-70"/>
			<point x="880" y="-70"/>
			<point x="897" y="-65" type="curve" smooth="yes"/>
			<point x="915" y="-59"/>
			<point x="919" y="-48"/>
		</contour>
		<contour>
			<point x="118" y="524" type="line"/>
			<point x="118" y="755" type="line"/>
			<point x="310" y="755" type="line"/>
			<point x="310" y="524" type="line"/>
		</contour>
		<contour>
			<point x="339" y="784" type="line"/>
			<point x="88" y="784" type="line"/>
			<point x="88" y="495" type="line"/>
			<point x="339" y="495" type="line"/>
		</contour>
		<contour>
			<point x="224" y="509" type="line"/>
			<point x="194" y="509" type="line"/>
			<point x="194" y="45" type="line"/>
			<point x="224" y="45" type="line"/>
		</contour>
		<contour>
			<point x="118" y="376" type="line"/>
			<point x="88" y="376" type="line"/>
			<point x="88" y="14" type="line"/>
			<point x="118" y="14" type="line"/>
		</contour>
		<contour>
			<point x="38" y="11" type="curve"/>
			<point x="47" y="-18" type="line"/>
			<point x="134" y="9"/>
			<point x="253" y="46"/>
			<point x="368" y="82" type="curve"/>
			<point x="364" y="110" type="line"/>
			<point x="242" y="72"/>
			<point x="121" y="33"/>
		</contour>
		<contour>
			<point x="347" y="321" type="line"/>
			<point x="210" y="321" type="line"/>
			<point x="210" y="291" type="line"/>
			<point x="347" y="291" type="line"/>
		</contour>
	</outline>
</glyph>
<glyph name="uni9307" format="2">
	<advance width="1000" height="1000"/>
	<unicode hex="9307"/>
	<note>
		cid41819
	</note>
	<outline>
		<contour>
			<point x="865" y="5" type="line"/>
			<point x="493" y="5" type="line"/>
			<point x="493" y="-24" type="line"/>
			<point x="865" y="-24" type="line"/>
		</contour>
		<contour>
			<point x="692" y="831" type="line"/>
			<point x="663" y="831" type="line"/>
			<point x="663" y="690" type="line"/>
			<point x="692" y="690" type="line"/>
		</contour>
		<contour>
			<point x="878" y="289" type="line"/>
			<point x="479" y="289" type="line"/>
			<point x="479" y="-71" type="line"/>
			<point x="508" y="-71" type="line"/>
			<point x="508" y="260" type="line"/>
			<point x="849" y="260" type="line"/>
			<point x="849" y="-67" type="line"/>
			<point x="878" y="-67" type="line"/>
		</contour>
		<contour>
			<point x="951" y="421" type="line"/>
			<point x="404" y="421" type="line"/>
			<point x="404" y="391" type="line"/>
			<point x="951" y="391" type="line"/>
		</contour>
		<contour>
			<point x="850" y="642" type="curve"/>
			<point x="820" y="652" type="line"/>
			<point x="806" y="592"/>
			<point x="776" y="500"/>
			<point x="754" y="446" type="curve"/>
			<point x="778" y="437" type="line"/>
			<point x="802" y="490"/>
			<point x="828" y="575"/>
		</contour>
		<contour>
			<point x="533" y="651" type="curve"/>
			<point x="506" y="645" type="line"/>
			<point x="531" y="580"/>
			<point x="552" y="497"/>
			<point x="556" y="443" type="curve"/>
			<point x="586" y="450" type="line"/>
			<point x="581" y="504"/>
			<point x="561" y="587"/>
		</contour>
		<contour>
			<point x="925" y="705" type="line"/>
			<point x="430" y="705" type="line"/>
			<point x="430" y="675" type="line"/>
			<point x="925" y="675" type="line"/>
		</contour>
		<contour>
			<point x="369" y="584" type="line"/>
			<point x="112" y="584" type="line"/>
			<point x="112" y="555" type="line"/>
			<point x="369" y="555" type="line"/>
		</contour>
		<contour>
			<point x="389" y="414" type="line"/>
			<point x="57" y="414" type="line"/>
			<point x="57" y="384" type="line"/>
			<point x="389" y="384" type="line"/>
		</contour>
		<contour>
			<point x="109" y="316" type="curve"/>
			<point x="82" y="310" type="line"/>
			<point x="104" y="244"/>
			<point x="121" y="160"/>
			<point x="123" y="104" type="curve"/>
			<point x="152" y="111" type="line"/>
			<point x="150" y="166"/>
			<point x="133" y="250"/>
		</contour>
		<contour>
			<point x="48" y="-1" type="curve"/>
			<point x="57" y="-31" type="line"/>
			<point x="152" y="-10"/>
			<point x="280" y="20"/>
			<point x="406" y="48" type="curve"/>
			<point x="403" y="75" type="line"/>
			<point x="272" y="46"/>
			<point x="137" y="17"/>
		</contour>
		<contour>
			<point x="370" y="320" type="curve"/>
			<point x="338" y="329" type="line"/>
			<point x="329" y="271"/>
			<point x="310" y="180"/>
			<point x="294" y="128" type="curve"/>
			<point x="320" y="119" type="line"/>
			<point x="336" y="171"/>
			<point x="355" y="255"/>
		</contour>
		<contour>
			<point x="244" y="569" type="line"/>
			<point x="215" y="569" type="line"/>
			<point x="215" y="22" type="line"/>
			<point x="244" y="25" type="line"/>
		</contour>
		<contour>
			<point x="227" y="830" type="line"/>
			<point x="211" y="830" type="line"/>
			<point x="179" y="749"/>
			<point x="116" y="639"/>
			<point x="28" y="558" type="curve"/>
			<point x="35" y="554"/>
			<point x="45" y="547"/>
			<point x="51" y="541" type="curve"/>
			<point x="141" y="626"/>
			<point x="202" y="735"/>
			<point x="236" y="812" type="curve"/>
			<point x="236" y="820" type="line"/>
			<point x="227" y="820" type="line"/>
		</contour>
		<contour>
			<point x="247" y="830" type="curve"/>
			<point x="220" y="830" type="line"/>
			<point x="220" y="809" type="line"/>
			<point x="228" y="809" type="line"/>
			<point x="285" y="754"/>
			<point x="350" y="670"/>
			<point x="382" y="621" type="curve"/>
			<point x="407" y="641" type="line"/>
			<point x="376" y="691"/>
			<point x="307" y="772"/>
		</contour>
	</outline>
</glyph>
<glyph name="uni93A6" format="2">
	<advance width="1000" height="1000"/>
	<unicode hex="93A6"/>
	<note>
		cid42141
	</note>
	<outline>
		<contour>
			<point x="44" y="-1" type="curve"/>
			<point x="53" y="-31" type="line"/>
			<point x="143" y="-12"/>
			<point x="267" y="16"/>
			<point x="386" y="42" type="curve"/>
			<point x="384" y="72" type="line"/>
			<point x="256" y="43"/>
			<point x="128" y="16"/>
		</contour>
		<contour>
			<point x="357" y="584" type="line"/>
			<point x="105" y="584" type="line"/>
			<point x="105" y="555" type="line"/>
			<point x="357" y="555" type="line"/>
		</contour>
		<contour>
			<point x="369" y="416" type="line"/>
			<point x="50" y="416" type="line"/>
			<point x="50" y="386" type="line"/>
			<point x="369" y="386" type="line"/>
		</contour>
		<contour>
			<point x="112" y="317" type="curve"/>
			<point x="84" y="312" type="line"/>
			<point x="106" y="246"/>
			<point x="121" y="162"/>
			<point x="122" y="106" type="curve"/>
			<point x="152" y="112" type="line"/>
			<point x="150" y="167"/>
			<point x="134" y="252"/>
		</contour>
		<contour>
			<point x="362" y="323" type="curve"/>
			<point x="332" y="329" type="line"/>
			<point x="325" y="273"/>
			<point x="306" y="184"/>
			<point x="291" y="131" type="curve"/>
			<point x="318" y="125" type="line"/>
			<point x="333" y="177"/>
			<point x="349" y="258"/>
		</contour>
		<contour>
			<point x="245" y="569" type="line"/>
			<point x="216" y="569" type="line"/>
			<point x="216" y="22" type="line"/>
			<point x="245" y="25" type="line"/>
		</contour>
		<contour>
			<point x="227" y="830" type="line"/>
			<point x="211" y="830" type="line"/>
			<point x="178" y="748"/>
			<point x="114" y="639"/>
			<point x="24" y="558" type="curve"/>
			<point x="31" y="554"/>
			<point x="41" y="547"/>
			<point x="46" y="541" type="curve"/>
			<point x="138" y="626"/>
			<point x="201" y="735"/>
			<point x="236" y="812" type="curve"/>
			<point x="236" y="820" type="line"/>
			<point x="227" y="820" type="line"/>
		</contour>
		<contour>
			<point x="247" y="830" type="curve"/>
			<point x="220" y="830" type="line"/>
			<point x="220" y="809" type="line"/>
			<point x="227" y="809" type="line"/>
			<point x="282" y="753"/>
			<point x="343" y="669"/>
			<point x="375" y="618" type="curve"/>
			<point x="399" y="639" type="line"/>
			<point x="369" y="689"/>
			<point x="304" y="771"/>
		</contour>
		<contour>
			<point x="897" y="176" type="line"/>
			<point x="463" y="176" type="line"/>
			<point x="463" y="146" type="line"/>
			<point x="897" y="146" type="line"/>
		</contour>
		<contour>
			<point x="917" y="766" type="line"/>
			<point x="657" y="766" type="line"/>
			<point x="657" y="736" type="line"/>
			<point x="917" y="736" type="line"/>
		</contour>
		<contour>
			<point x="892" y="4" type="line"/>
			<point x="463" y="4" type="line"/>
			<point x="463" y="-25" type="line"/>
			<point x="892" y="-25" type="line"/>
		</contour>
		<contour>
			<point x="590" y="636" type="curve"/>
			<point x="567" y="624" type="line"/>
			<point x="604" y="576"/>
			<point x="640" y="511"/>
			<point x="655" y="468" type="curve"/>
			<point x="679" y="482" type="line"/>
			<point x="666" y="523"/>
			<point x="628" y="588"/>
		</contour>
		<contour>
			<point x="906" y="346" type="line"/>
			<point x="449" y="346" type="line"/>
			<point x="449" y="-72" type="line"/>
			<point x="478" y="-72" type="line"/>
			<point x="478" y="317" type="line"/>
			<point x="877" y="317" type="line"/>
			<point x="877" y="-68" type="line"/>
			<point x="906" y="-68" type="line"/>
		</contour>
		<contour>
			<point x="775" y="757" type="curve"/>
			<point x="745" y="757" type="line"/>
			<point x="738" y="575"/>
			<point x="711" y="461"/>
			<point x="588" y="400" type="curve"/>
			<point x="595" y="396"/>
			<point x="605" y="386"/>
			<point x="609" y="380" type="curve"/>
			<point x="736" y="446"/>
			<point x="767" y="565"/>
		</contour>
		<contour>
			<point x="692" y="332" type="line"/>
			<point x="663" y="332" type="line"/>
			<point x="663" y="-12" type="line"/>
			<point x="692" y="-12" type="line"/>
		</contour>
		<contour>
			<point x="934" y="766" type="curve"/>
			<point x="905" y="766" type="line"/>
			<point x="905" y="758" type="line"/>
			<point x="899" y="528"/>
			<point x="893" y="449"/>
			<point x="879" y="431" type="curve" smooth="yes"/>
			<point x="873" y="424"/>
			<point x="867" y="423"/>
			<point x="855" y="423" type="curve" smooth="yes"/>
			<point x="843" y="423"/>
			<point x="811" y="423"/>
			<point x="774" y="425" type="curve"/>
			<point x="779" y="418"/>
			<point x="782" y="406"/>
			<point x="783" y="397" type="curve"/>
			<point x="813" y="395"/>
			<point x="844" y="394"/>
			<point x="861" y="395" type="curve" smooth="yes"/>
			<point x="882" y="395"/>
			<point x="894" y="400"/>
			<point x="904" y="413" type="curve" smooth="yes"/>
			<point x="922" y="436"/>
			<point x="927" y="511"/>
			<point x="934" y="746" type="curve" smooth="yes"/>
			<point x="934" y="752"/>
			<point x="934" y="766"/>
		</contour>
		<contour>
			<point x="647" y="803" type="curve"/>
			<point x="623" y="823" type="line"/>
			<point x="578" y="801"/>
			<point x="500" y="768"/>
			<point x="445" y="751" type="curve"/>
			<point x="465" y="730" type="line"/>
			<point x="521" y="748"/>
			<point x="595" y="772"/>
		</contour>
		<contour>
			<point x="385" y="452" type="curve"/>
			<point x="397" y="422" type="line"/>
			<point x="481" y="453"/>
			<point x="565" y="484"/>
			<point x="649" y="516" type="curve"/>
			<point x="644" y="543" type="line"/>
			<point x="553" y="510"/>
			<point x="465" y="477"/>
		</contour>
		<contour>
			<point x="469" y="753" type="line"/>
			<point x="439" y="763" type="line"/>
			<point x="439" y="459" type="line"/>
			<point x="469" y="459" type="line"/>
		</contour>
	</outline>
</glyph>
<glyph name="uni93B3" format="2">
	<advance width="1000"/>
	<unicode hex="93B3"/>
	<note>
		cid42167
	</note>
	<outline>
		<contour>
			<point x="373" y="584" type="line"/>
			<point x="112" y="584" type="line"/>
			<point x="112" y="555" type="line"/>
			<point x="373" y="555" type="line"/>
		</contour>
		<contour>
			<point x="393" y="414" type="line"/>
			<point x="57" y="414" type="line"/>
			<point x="57" y="384" type="line"/>
			<point x="393" y="384" type="line"/>
		</contour>
		<contour>
			<point x="109" y="316" type="curve"/>
			<point x="82" y="310" type="line"/>
			<point x="104" y="244"/>
			<point x="121" y="160"/>
			<point x="123" y="104" type="curve"/>
			<point x="152" y="111" type="line"/>
			<point x="150" y="166"/>
			<point x="133" y="250"/>
		</contour>
		<contour>
			<point x="48" y="-1" type="curve"/>
			<point x="57" y="-31" type="line"/>
			<point x="152" y="-10"/>
			<point x="280" y="20"/>
			<point x="406" y="48" type="curve"/>
			<point x="403" y="75" type="line"/>
			<point x="272" y="46"/>
			<point x="137" y="17"/>
		</contour>
		<contour>
			<point x="371" y="320" type="curve"/>
			<point x="339" y="329" type="line"/>
			<point x="330" y="271"/>
			<point x="311" y="180"/>
			<point x="295" y="128" type="curve"/>
			<point x="321" y="119" type="line"/>
			<point x="337" y="171"/>
			<point x="356" y="255"/>
		</contour>
		<contour>
			<point x="245" y="569" type="line"/>
			<point x="216" y="569" type="line"/>
			<point x="216" y="22" type="line"/>
			<point x="245" y="25" type="line"/>
		</contour>
		<contour>
			<point x="227" y="830" type="line"/>
			<point x="211" y="830" type="line"/>
			<point x="179" y="749"/>
			<point x="116" y="639"/>
			<point x="28" y="558" type="curve"/>
			<point x="35" y="554"/>
			<point x="45" y="547"/>
			<point x="51" y="541" type="curve"/>
			<point x="141" y="626"/>
			<point x="202" y="735"/>
			<point x="236" y="812" type="curve"/>
			<point x="236" y="820" type="line"/>
			<point x="227" y="820" type="line"/>
		</contour>
		<contour>
			<point x="247" y="830" type="curve"/>
			<point x="220" y="830" type="line"/>
			<point x="220" y="809" type="line"/>
			<point x="228" y="809" type="line"/>
			<point x="283" y="754"/>
			<point x="346" y="670"/>
			<point x="378" y="621" type="curve"/>
			<point x="403" y="641" type="line"/>
			<point x="372" y="691"/>
			<point x="305" y="772"/>
		</contour>
		<contour>
			<point x="491" y="501" type="line"/>
			<point x="491" y="589" type="line"/>
			<point x="852" y="589" type="line"/>
			<point x="852" y="501" type="line"/>
		</contour>
		<contour>
			<point x="491" y="381" type="line"/>
			<point x="491" y="472" type="line"/>
			<point x="852" y="472" type="line"/>
			<point x="852" y="381" type="line"/>
		</contour>
		<contour>
			<point x="491" y="619" type="line"/>
			<point x="491" y="706" type="line"/>
			<point x="852" y="706" type="line"/>
			<point x="852" y="619" type="line"/>
		</contour>
		<contour>
			<point x="882" y="735" type="line"/>
			<point x="461" y="735" type="line"/>
			<point x="461" y="352" type="line"/>
			<point x="882" y="352" type="line"/>
		</contour>
		<contour>
			<point x="697" y="819" type="curve"/>
			<point x="669" y="831" type="line"/>
			<point x="660" y="802"/>
			<point x="639" y="755"/>
			<point x="623" y="725" type="curve"/>
			<point x="647" y="715" type="line"/>
			<point x="663" y="742"/>
			<point x="681" y="782"/>
		</contour>
		<contour>
			<point x="951" y="262" type="line"/>
			<point x="412" y="262" type="line"/>
			<point x="412" y="232" type="line"/>
			<point x="951" y="232" type="line"/>
		</contour>
		<contour>
			<point x="687" y="364" type="line"/>
			<point x="657" y="364" type="line"/>
			<point x="657" y="-68" type="line"/>
			<point x="687" y="-68" type="line"/>
		</contour>
		<contour>
			<point x="665" y="239" type="curve"/>
			<point x="642" y="250" type="line"/>
			<point x="588" y="144"/>
			<point x="480" y="34"/>
			<point x="384" y="-14" type="curve"/>
			<point x="392" y="-19"/>
			<point x="401" y="-29"/>
			<point x="405" y="-37" type="curve"/>
			<point x="501" y="17"/>
			<point x="609" y="130"/>
		</contour>
		<contour>
			<point x="691" y="250" type="curve"/>
			<point x="667" y="238" type="line"/>
			<point x="731" y="137"/>
			<point x="851" y="24"/>
			<point x="947" y="-29" type="curve"/>
			<point x="952" y="-21"/>
			<point x="961" y="-12"/>
			<point x="969" y="-6" type="curve"/>
			<point x="871" y="42"/>
			<point x="751" y="151"/>
		</contour>
	</outline>
</glyph>
<glyph name="uni9485" format="2">
	<advance width="1000" height="1000"/>
	<unicode hex="9485"/>
	<note>
		cid42587
	</note>
	<outline>
		<contour>
			<point x="246" y="832" type="curve"/>
			<point x="219" y="841" type="line"/>
			<point x="193" y="734"/>
			<point x="128" y="620"/>
			<point x="50" y="545" type="curve"/>
			<point x="58" y="539"/>
			<point x="67" y="530"/>
			<point x="71" y="524" type="curve"/>
			<point x="150" y="599"/>
			<point x="218" y="718"/>
		</contour>
		<contour>
			<point x="508" y="712" type="line"/>
			<point x="183" y="712" type="line"/>
			<point x="177" y="682" type="line"/>
			<point x="508" y="682" type="line"/>
		</contour>
		<contour>
			<point x="469" y="542" type="line"/>
			<point x="131" y="542" type="line"/>
			<point x="131" y="513" type="line"/>
			<point x="469" y="513" type="line"/>
		</contour>
		<contour>
			<point x="510" y="339" type="line"/>
			<point x="64" y="339" type="line"/>
			<point x="64" y="310" type="line"/>
			<point x="510" y="310" type="line"/>
		</contour>
		<contour>
			<point x="292" y="524" type="line"/>
			<point x="263" y="524" type="line"/>
			<point x="263" y="5" type="line"/>
			<point x="292" y="5" type="line"/>
		</contour>
		<contour>
			<point x="161" y="-14" type="curve"/>
			<point x="176" y="-41" type="line"/>
			<point x="260" y="-14"/>
			<point x="382" y="30"/>
			<point x="494" y="73" type="curve"/>
			<point x="490" y="101" type="line"/>
			<point x="384" y="60"/>
			<point x="257" y="16"/>
		</contour>
	</outline>
</glyph>
<glyph name="uni97F9" format="2">
	<advance width="1000"/>
	<unicode hex="97F9"/>
	<note>
		cid43948
	</note>
	<outline>
		<contour>
			<point x="385" y="181" type="line"/>
			<point x="121" y="181" type="line"/>
			<point x="121" y="152" type="line"/>
			<point x="385" y="152" type="line"/>
		</contour>
		<contour>
			<point x="441" y="719" type="line"/>
			<point x="66" y="719" type="line"/>
			<point x="66" y="690" type="line"/>
			<point x="441" y="690" type="line"/>
		</contour>
		<contour>
			<point x="451" y="475" type="line"/>
			<point x="49" y="475" type="line"/>
			<point x="49" y="446" type="line"/>
			<point x="451" y="446" type="line"/>
		</contour>
		<contour>
			<point x="400" y="347" type="line"/>
			<point x="122" y="347" type="line"/>
			<point x="122" y="318" type="line"/>
			<point x="371" y="318" type="line"/>
			<point x="371" y="13" type="line"/>
			<point x="122" y="13" type="line"/>
			<point x="122" y="-16" type="line"/>
			<point x="400" y="-16" type="line"/>
		</contour>
		<contour>
			<point x="269" y="830" type="line"/>
			<point x="239" y="830" type="line"/>
			<point x="239" y="698" type="line"/>
			<point x="269" y="698" type="line"/>
		</contour>
		<contour>
			<point x="156" y="665" type="curve"/>
			<point x="128" y="659" type="line"/>
			<point x="146" y="607"/>
			<point x="161" y="539"/>
			<point x="163" y="495" type="curve"/>
			<point x="193" y="501" type="line"/>
			<point x="190" y="545"/>
			<point x="176" y="613"/>
		</contour>
		<contour>
			<point x="379" y="660" type="curve"/>
			<point x="347" y="670" type="line"/>
			<point x="338" y="621"/>
			<point x="320" y="545"/>
			<point x="304" y="501" type="curve"/>
			<point x="329" y="493" type="line"/>
			<point x="345" y="535"/>
			<point x="364" y="605"/>
		</contour>
		<contour>
			<point x="134" y="347" type="line"/>
			<point x="105" y="347" type="line"/>
			<point x="105" y="-67" type="line"/>
			<point x="134" y="-67" type="line"/>
		</contour>
		<contour>
			<point x="707" y="312" type="line"/>
			<point x="679" y="312" type="line"/>
			<point x="679" y="-23" type="line"/>
			<point x="707" y="-23" type="line"/>
		</contour>
		<contour>
			<point x="926" y="318" type="line"/>
			<point x="478" y="318" type="line"/>
			<point x="478" y="288" type="line"/>
			<point x="926" y="288" type="line"/>
		</contour>
		<contour>
			<point x="946" y="-6" type="line"/>
			<point x="451" y="-6" type="line"/>
			<point x="451" y="-35" type="line"/>
			<point x="946" y="-35" type="line"/>
		</contour>
		<contour>
			<point x="892" y="162" type="line"/>
			<point x="499" y="162" type="line"/>
			<point x="499" y="132" type="line"/>
			<point x="892" y="132" type="line"/>
		</contour>
		<contour>
			<point x="533" y="439" type="line"/>
			<point x="533" y="555" type="line"/>
			<point x="872" y="555" type="line"/>
			<point x="872" y="439" type="line"/>
		</contour>
		<contour>
			<point x="533" y="584" type="line"/>
			<point x="533" y="698" type="line"/>
			<point x="872" y="698" type="line"/>
			<point x="872" y="584" type="line"/>
		</contour>
		<contour>
			<point x="899" y="727" type="line"/>
			<point x="505" y="727" type="line"/>
			<point x="505" y="410" type="line"/>
			<point x="899" y="410" type="line"/>
		</contour>
		<contour>
			<point x="725" y="818" type="curve"/>
			<point x="698" y="830" type="line"/>
			<point x="690" y="797"/>
			<point x="670" y="744"/>
			<point x="655" y="712" type="curve"/>
			<point x="677" y="702" type="line"/>
			<point x="692" y="732"/>
			<point x="709" y="778"/>
		</contour>
	</outline>
</glyph>
<glyph name="uni500D.HK" format="2">
	<advance width="1000" height="1000"/>
	<note>
		cid10264
	</note>
	<outline>
		<contour>
			<point x="935" y="674" type="line"/>
			<point x="330" y="674" type="line"/>
			<point x="330" y="644" type="line"/>
			<point x="935" y="644" type="line"/>
		</contour>
		<contour>
			<point x="857" y="9" type="line"/>
			<point x="406" y="9" type="line"/>
			<point x="406" y="-20" type="line"/>
			<point x="857" y="-20" type="line"/>
		</contour>
		<contour>
			<point x="956" y="412" type="line"/>
			<point x="284" y="412" type="line"/>
			<point x="284" y="383" type="line"/>
			<point x="956" y="383" type="line"/>
		</contour>
		<contour>
			<point x="446" y="621" type="curve"/>
			<point x="420" y="613" type="line"/>
			<point x="447" y="555"/>
			<point x="473" y="480"/>
			<point x="480" y="433" type="curve"/>
			<point x="509" y="445" type="line"/>
			<point x="501" y="490"/>
			<point x="475" y="564"/>
		</contour>
		<contour>
			<point x="836" y="615" type="curve"/>
			<point x="805" y="626" type="line"/>
			<point x="788" y="571"/>
			<point x="757" y="486"/>
			<point x="731" y="437" type="curve"/>
			<point x="757" y="427" type="line"/>
			<point x="783" y="476"/>
			<point x="813" y="553"/>
		</contour>
		<contour>
			<point x="869" y="287" type="line"/>
			<point x="389" y="287" type="line"/>
			<point x="389" y="-73" type="line"/>
			<point x="419" y="-73" type="line"/>
			<point x="419" y="258" type="line"/>
			<point x="840" y="258" type="line"/>
			<point x="840" y="-66" type="line"/>
			<point x="869" y="-66" type="line"/>
		</contour>
		<contour>
			<point x="320" y="819" type="curve"/>
			<point x="291" y="827" type="line"/>
			<point x="230" y="666"/>
			<point x="130" y="508"/>
			<point x="23" y="405" type="curve"/>
			<point x="30" y="400"/>
			<point x="40" y="387"/>
			<point x="44" y="381" type="curve"/>
			<point x="152" y="491"/>
			<point x="253" y="650"/>
		</contour>
		<contour>
			<point x="207" y="616" type="line"/>
			<point x="180" y="588" type="line"/>
			<point x="180" y="-68" type="line"/>
			<point x="209" y="-68" type="line"/>
			<point x="209" y="615" type="line"/>
		</contour>
		<contour>
			<point x="822" y="802" type="line"/>
			<point x="444" y="802" type="line"/>
			<point x="444" y="773" type="line"/>
			<point x="822" y="773" type="line"/>
		</contour>
	</outline>
</glyph>
<glyph name="uni524E.inherited" format="2">
	<advance width="1000"/>
	<outline>
		<contour>
			<point x="328" y="486" type="line"/>
			<point x="299" y="486" type="line"/>
			<point x="299" y="-70" type="line"/>
			<point x="328" y="-70" type="line"/>
		</contour>
		<contour>
			<point x="566" y="352" type="line"/>
			<point x="61" y="352" type="line"/>
			<point x="61" y="323" type="line"/>
			<point x="566" y="323" type="line"/>
		</contour>
		<contour>
			<point x="428" y="483" type="curve"/>
			<point x="408" y="468" type="line"/>
			<point x="447" y="443"/>
			<point x="491" y="405"/>
			<point x="513" y="379" type="curve"/>
			<point x="533" y="396" type="line"/>
			<point x="512" y="422"/>
			<point x="467" y="459"/>
		</contour>
		<contour>
			<point x="509" y="792" type="curve"/>
			<point x="482" y="802" type="line"/>
			<point x="387" y="661"/>
			<point x="217" y="548"/>
			<point x="61" y="483" type="curve"/>
			<point x="68" y="477"/>
			<point x="78" y="464"/>
			<point x="82" y="458" type="curve"/>
			<point x="240" y="531"/>
			<point x="414" y="652"/>
		</contour>
		<contour>
			<point x="118" y="756" type="curve"/>
			<point x="99" y="735" type="line"/>
			<point x="215" y="692"/>
			<point x="434" y="592"/>
			<point x="533" y="518" type="curve"/>
			<point x="553" y="544" type="line"/>
			<point x="458" y="611"/>
			<point x="240" y="714"/>
		</contour>
		<contour>
			<point x="690" y="713" type="line"/>
			<point x="661" y="713" type="line"/>
			<point x="661" y="170" type="line"/>
			<point x="690" y="170" type="line"/>
		</contour>
		<contour>
			<point x="902" y="-17" type="curve" smooth="yes"/>
			<point x="902" y="810" type="line"/>
			<point x="873" y="810" type="line"/>
			<point x="873" y="-17" type="line" smooth="yes"/>
			<point x="873" y="-36"/>
			<point x="866" y="-41"/>
			<point x="848" y="-42" type="curve" smooth="yes"/>
			<point x="833" y="-43"/>
			<point x="776" y="-43"/>
			<point x="707" y="-42" type="curve"/>
			<point x="712" y="-50"/>
			<point x="717" y="-62"/>
			<point x="720" y="-70" type="curve"/>
			<point x="804" y="-70"/>
			<point x="846" y="-70"/>
			<point x="869" y="-64" type="curve" smooth="yes"/>
			<point x="890" y="-59"/>
			<point x="902" y="-48"/>
		</contour>
		<contour>
			<point x="447" y="61" type="curve" smooth="yes"/>
			<point x="447" y="272" type="line"/>
			<point x="418" y="272" type="line"/>
			<point x="418" y="61" type="line" smooth="yes"/>
			<point x="418" y="12"/>
			<point x="431" y="1"/>
			<point x="478" y="1" type="curve" smooth="yes"/>
			<point x="496" y="1"/>
			<point x="517" y="1"/>
			<point x="534" y="1" type="curve" smooth="yes"/>
			<point x="581" y="1"/>
			<point x="590" y="34"/>
			<point x="593" y="95" type="curve"/>
			<point x="584" y="98"/>
			<point x="572" y="103"/>
			<point x="563" y="110" type="curve"/>
			<point x="561" y="52"/>
			<point x="556" y="31"/>
			<point x="532" y="31" type="curve" smooth="yes"/>
			<point x="517" y="31"/>
			<point x="496" y="31"/>
			<point x="478" y="31" type="curve" smooth="yes"/>
			<point x="453" y="31"/>
			<point x="447" y="36"/>
		</contour>
		<contour>
			<point x="208" y="203" type="curve" smooth="yes"/>
			<point x="208" y="272" type="line"/>
			<point x="179" y="272" type="line"/>
			<point x="179" y="203" type="line" smooth="yes"/>
			<point x="179" y="110"/>
			<point x="132" y="59"/>
			<point x="48" y="19" type="curve"/>
			<point x="55" y="13"/>
			<point x="62" y="1"/>
			<point x="65" y="-6" type="curve"/>
			<point x="157" y="39"/>
			<point x="208" y="99"/>
		</contour>
	</outline>
</glyph>
<glyph name="uni5256.HK" format="2">
	<advance width="1000" height="1000"/>
	<note>
		cid11250
	</note>
	<outline>
		<contour>
			<point x="681" y="712" type="line"/>
			<point x="652" y="712" type="line"/>
			<point x="652" y="169" type="line"/>
			<point x="681" y="169" type="line"/>
		</contour>
		<contour>
			<point x="901" y="-18" type="curve" smooth="yes"/>
			<point x="901" y="813" type="line"/>
			<point x="871" y="813" type="line"/>
			<point x="871" y="-19" type="line" smooth="yes"/>
			<point x="871" y="-37"/>
			<point x="865" y="-42"/>
			<point x="847" y="-43" type="curve" smooth="yes"/>
			<point x="831" y="-44"/>
			<point x="774" y="-45"/>
			<point x="706" y="-43" type="curve"/>
			<point x="711" y="-52"/>
			<point x="716" y="-64"/>
			<point x="719" y="-71" type="curve"/>
			<point x="803" y="-72"/>
			<point x="845" y="-72"/>
			<point x="868" y="-66" type="curve" smooth="yes"/>
			<point x="889" y="-61"/>
			<point x="901" y="-49"/>
		</contour>
		<contour>
			<point x="570" y="675" type="line"/>
			<point x="80" y="675" type="line"/>
			<point x="80" y="645" type="line"/>
			<point x="570" y="645" type="line"/>
		</contour>
		<contour>
			<point x="602" y="411" type="line"/>
			<point x="50" y="411" type="line"/>
			<point x="50" y="382" type="line"/>
			<point x="602" y="382" type="line"/>
		</contour>
		<contour>
			<point x="492" y="802" type="line"/>
			<point x="158" y="802" type="line"/>
			<point x="158" y="773" type="line"/>
			<point x="492" y="773" type="line"/>
		</contour>
		<contour>
			<point x="189" y="617" type="curve"/>
			<point x="163" y="611" type="line"/>
			<point x="188" y="554"/>
			<point x="208" y="486"/>
			<point x="216" y="433" type="curve"/>
			<point x="244" y="440" type="line"/>
			<point x="236" y="494"/>
			<point x="215" y="562"/>
		</contour>
		<contour>
			<point x="500" y="613" type="curve"/>
			<point x="468" y="623" type="line"/>
			<point x="449" y="562"/>
			<point x="421" y="490"/>
			<point x="397" y="436" type="curve"/>
			<point x="425" y="427" type="line"/>
			<point x="448" y="478"/>
			<point x="477" y="550"/>
		</contour>
		<contour>
			<point x="509" y="11" type="line"/>
			<point x="146" y="11" type="line"/>
			<point x="146" y="-19" type="line"/>
			<point x="509" y="-19" type="line"/>
		</contour>
		<contour>
			<point x="522" y="284" type="line"/>
			<point x="130" y="284" type="line"/>
			<point x="130" y="-70" type="line"/>
			<point x="159" y="-70" type="line"/>
			<point x="159" y="255" type="line"/>
			<point x="492" y="255" type="line"/>
			<point x="492" y="-65" type="line"/>
			<point x="522" y="-65" type="line"/>
		</contour>
	</outline>
</glyph>
<glyph name="uni57B9.inherited" format="2">
	<advance width="1000" height="1000"/>
	<note>
		cid13457
	</note>
	<outline>
		<contour>
			<point x="327" y="594" type="line"/>
			<point x="61" y="594" type="line"/>
			<point x="61" y="565" type="line"/>
			<point x="327" y="565" type="line"/>
		</contour>
		<contour>
			<point x="212" y="818" type="line"/>
			<point x="183" y="818" type="line"/>
			<point x="183" y="234" type="line"/>
			<point x="212" y="234" type="line"/>
		</contour>
		<contour>
			<point x="48" y="188" type="curve"/>
			<point x="64" y="161" type="line"/>
			<point x="138" y="191"/>
			<point x="234" y="232"/>
			<point x="326" y="272" type="curve"/>
			<point x="319" y="298" type="line"/>
			<point x="137" y="222"/>
			<point x="87" y="203"/>
		</contour>
		<contour>
			<point x="670" y="667" type="line"/>
			<point x="321" y="667" type="line"/>
			<point x="321" y="638" type="line"/>
			<point x="670" y="638" type="line"/>
		</contour>
		<contour>
			<point x="648" y="474" type="line"/>
			<point x="335" y="474" type="line"/>
			<point x="335" y="445" type="line"/>
			<point x="648" y="445" type="line"/>
		</contour>
		<contour>
			<point x="305" y="227" type="curve"/>
			<point x="314" y="197" type="line"/>
			<point x="408" y="214"/>
			<point x="543" y="237"/>
			<point x="672" y="260" type="curve"/>
			<point x="670" y="288" type="line"/>
			<point x="532" y="264"/>
			<point x="394" y="240"/>
		</contour>
		<contour>
			<point x="511" y="441" type="curve" smooth="yes"/>
			<point x="511" y="830" type="line"/>
			<point x="482" y="830" type="line"/>
			<point x="482" y="444" type="line" smooth="yes"/>
			<point x="482" y="239"/>
			<point x="454" y="75"/>
			<point x="256" y="-51" type="curve"/>
			<point x="263" y="-56"/>
			<point x="273" y="-65"/>
			<point x="277" y="-71" type="curve"/>
			<point x="473" y="55"/>
			<point x="511" y="212"/>
		</contour>
		<contour>
			<point x="920" y="787" type="line"/>
			<point x="703" y="787" type="line"/>
			<point x="703" y="-69" type="line"/>
			<point x="732" y="-69" type="line"/>
			<point x="732" y="758" type="line"/>
			<point x="920" y="758" type="line"/>
		</contour>
		<contour>
			<point x="914" y="787" type="line"/>
			<point x="902" y="787" type="line"/>
			<point x="902" y="764" type="line"/>
			<point x="877" y="691"/>
			<point x="841" y="594"/>
			<point x="803" y="505" type="curve"/>
			<point x="883" y="414"/>
			<point x="904" y="338"/>
			<point x="904" y="274" type="curve" smooth="yes"/>
			<point x="904" y="241"/>
			<point x="899" y="205"/>
			<point x="881" y="192" type="curve" smooth="yes"/>
			<point x="873" y="186"/>
			<point x="862" y="183"/>
			<point x="848" y="182" type="curve" smooth="yes"/>
			<point x="830" y="181"/>
			<point x="807" y="181"/>
			<point x="780" y="184" type="curve"/>
			<point x="786" y="174"/>
			<point x="790" y="163"/>
			<point x="791" y="154" type="curve"/>
			<point x="812" y="152"/>
			<point x="836" y="152"/>
			<point x="857" y="154" type="curve" smooth="yes"/>
			<point x="875" y="156"/>
			<point x="890" y="161"/>
			<point x="901" y="169" type="curve" smooth="yes"/>
			<point x="924" y="186"/>
			<point x="933" y="230"/>
			<point x="933" y="274" type="curve" smooth="yes"/>
			<point x="933" y="342"/>
			<point x="914" y="418"/>
			<point x="835" y="509" type="curve"/>
			<point x="872" y="596"/>
			<point x="910" y="694"/>
			<point x="939" y="776" type="curve"/>
			<point x="919" y="789" type="line"/>
		</contour>
	</outline>
</glyph>
<glyph name="uni5AFA.HK" format="2">
	<advance width="1000" height="1000"/>
	<note>
		cid15156
	</note>
	<outline>
		<contour>
			<point x="740" y="389" type="line"/>
			<point x="532" y="389" type="line"/>
			<point x="532" y="360" type="line"/>
			<point x="740" y="360" type="line"/>
		</contour>
		<contour>
			<point x="691" y="276" type="line"/>
			<point x="533" y="276" type="line"/>
			<point x="533" y="246" type="line"/>
			<point x="691" y="246" type="line"/>
		</contour>
		<contour>
			<point x="691" y="159" type="line"/>
			<point x="533" y="159" type="line"/>
			<point x="533" y="130" type="line"/>
			<point x="691" y="130" type="line"/>
		</contour>
		<contour>
			<point x="751" y="26" type="curve" smooth="yes"/>
			<point x="751" y="389" type="line"/>
			<point x="721" y="389" type="line"/>
			<point x="721" y="25" type="line" smooth="yes"/>
			<point x="721" y="17"/>
			<point x="720" y="14"/>
			<point x="710" y="13" type="curve" smooth="yes"/>
			<point x="700" y="13"/>
			<point x="672" y="13"/>
			<point x="633" y="14" type="curve"/>
			<point x="638" y="5"/>
			<point x="644" y="-7"/>
			<point x="645" y="-16" type="curve"/>
			<point x="689" y="-16"/>
			<point x="717" y="-16"/>
			<point x="731" y="-10" type="curve" smooth="yes"/>
			<point x="747" y="-4"/>
			<point x="751" y="6"/>
		</contour>
		<contour>
			<point x="549" y="216" type="curve" smooth="yes"/>
			<point x="549" y="389" type="line"/>
			<point x="520" y="389" type="line"/>
			<point x="520" y="216" type="line" smooth="yes"/>
			<point x="520" y="146"/>
			<point x="514" y="57"/>
			<point x="467" y="-10" type="curve"/>
			<point x="474" y="-13"/>
			<point x="485" y="-20"/>
			<point x="491" y="-26" type="curve"/>
			<point x="540" y="42"/>
			<point x="549" y="142"/>
		</contour>
		<contour>
			<point x="397" y="780" type="line"/>
			<point x="368" y="780" type="line"/>
			<point x="368" y="-71" type="line"/>
			<point x="397" y="-71" type="line"/>
		</contour>
		<contour>
			<point x="591" y="780" type="line"/>
			<point x="381" y="780" type="line"/>
			<point x="381" y="751" type="line"/>
			<point x="562" y="751" type="line"/>
			<point x="562" y="497" type="line"/>
			<point x="381" y="497" type="line"/>
			<point x="381" y="468" type="line"/>
			<point x="591" y="468" type="line"/>
		</contour>
		<contour>
			<point x="579" y="640" type="line"/>
			<point x="384" y="640" type="line"/>
			<point x="384" y="611" type="line"/>
			<point x="579" y="611" type="line"/>
		</contour>
		<contour>
			<point x="895" y="640" type="line"/>
			<point x="691" y="640" type="line"/>
			<point x="691" y="611" type="line"/>
			<point x="895" y="611" type="line"/>
		</contour>
		<contour>
			<point x="891" y="751" type="line"/>
			<point x="891" y="780" type="line"/>
			<point x="678" y="780" type="line"/>
			<point x="678" y="468" type="line"/>
			<point x="891" y="468" type="line"/>
			<point x="891" y="497" type="line"/>
			<point x="708" y="497" type="line"/>
			<point x="708" y="751" type="line"/>
		</contour>
		<contour>
			<point x="908" y="-18" type="curve" smooth="yes"/>
			<point x="908" y="780" type="line"/>
			<point x="878" y="780" type="line"/>
			<point x="878" y="-19" type="line" smooth="yes"/>
			<point x="878" y="-33"/>
			<point x="874" y="-36"/>
			<point x="863" y="-37" type="curve" smooth="yes"/>
			<point x="850" y="-37"/>
			<point x="809" y="-38"/>
			<point x="762" y="-36" type="curve"/>
			<point x="767" y="-46"/>
			<point x="772" y="-61"/>
			<point x="774" y="-68" type="curve"/>
			<point x="828" y="-68"/>
			<point x="865" y="-68"/>
			<point x="882" y="-63" type="curve" smooth="yes"/>
			<point x="901" y="-57"/>
			<point x="908" y="-45"/>
		</contour>
		<contour>
			<point x="292" y="617" type="line"/>
			<point x="49" y="617" type="line"/>
			<point x="49" y="587" type="line"/>
			<point x="292" y="587" type="line"/>
		</contour>
		<contour>
			<point x="196" y="827" type="curve"/>
			<point x="166" y="831" type="line"/>
			<point x="139" y="650"/>
			<point x="90" y="376"/>
			<point x="56" y="229" type="curve"/>
			<point x="85" y="218" type="line"/>
			<point x="119" y="369"/>
			<point x="168" y="641"/>
		</contour>
		<contour>
			<point x="94" y="293" type="curve"/>
			<point x="74" y="275" type="line"/>
			<point x="171" y="203"/>
			<point x="275" y="97"/>
			<point x="321" y="23" type="curve"/>
			<point x="342" y="45" type="line"/>
			<point x="297" y="119"/>
			<point x="192" y="223"/>
		</contour>
		<contour>
			<point x="287" y="617" type="line"/>
			<point x="281" y="617" type="line"/>
			<point x="281" y="608" type="line"/>
			<point x="264" y="255"/>
			<point x="181" y="47"/>
			<point x="55" y="-46" type="curve"/>
			<point x="63" y="-52"/>
			<point x="73" y="-64"/>
			<point x="78" y="-71" type="curve"/>
			<point x="210" y="33"/>
			<point x="292" y="241"/>
			<point x="312" y="614" type="curve"/>
			<point x="293" y="619" type="line"/>
		</contour>
	</outline>
</glyph>
<glyph name="uni611B.HK" format="2">
	<advance width="1000" height="1000"/>
	<note>
		cid18049
	</note>
	<outline>
		<contour>
			<point x="913" y="596" type="line"/>
			<point x="86" y="596" type="line"/>
			<point x="86" y="431" type="line"/>
			<point x="116" y="431" type="line"/>
			<point x="116" y="567" type="line"/>
			<point x="883" y="567" type="line"/>
			<point x="883" y="431" type="line"/>
			<point x="913" y="431" type="line"/>
		</contour>
		<contour>
			<point x="739" y="497" type="curve"/>
			<point x="716" y="482" type="line"/>
			<point x="773" y="435"/>
			<point x="840" y="368"/>
			<point x="871" y="324" type="curve"/>
			<point x="895" y="341" type="line"/>
			<point x="864" y="385"/>
			<point x="797" y="451"/>
		</contour>
		<contour>
			<point x="429" y="548" type="curve"/>
			<point x="410" y="527" type="line"/>
			<point x="465" y="503"/>
			<point x="530" y="465"/>
			<point x="565" y="437" type="curve"/>
			<point x="583" y="461" type="line"/>
			<point x="550" y="488"/>
			<point x="483" y="524"/>
		</contour>
		<contour>
			<point x="730" y="234" type="line"/>
			<point x="721" y="234" type="line"/>
			<point x="721" y="228" type="line"/>
			<point x="604" y="68"/>
			<point x="328" y="-13"/>
			<point x="59" y="-45" type="curve"/>
			<point x="65" y="-52"/>
			<point x="73" y="-65"/>
			<point x="76" y="-72" type="curve"/>
			<point x="348" y="-34"/>
			<point x="627" y="45"/>
			<point x="757" y="221" type="curve"/>
			<point x="737" y="236" type="line"/>
		</contour>
		<contour>
			<point x="299" y="211" type="curve"/>
			<point x="274" y="197" type="line"/>
			<point x="396" y="46"/>
			<point x="659" y="-41"/>
			<point x="924" y="-72" type="curve"/>
			<point x="929" y="-64"/>
			<point x="936" y="-52"/>
			<point x="943" y="-45" type="curve"/>
			<point x="674" y="-17"/>
			<point x="416" y="68"/>
		</contour>
		<contour>
			<point x="412" y="309" type="curve"/>
			<point x="383" y="320" type="line"/>
			<point x="308" y="225"/>
			<point x="183" y="140"/>
			<point x="64" y="85" type="curve"/>
			<point x="72" y="81"/>
			<point x="84" y="70"/>
			<point x="89" y="64" type="curve"/>
			<point x="204" y="122"/>
			<point x="330" y="210"/>
		</contour>
		<contour>
			<point x="363" y="372" type="curve" smooth="yes"/>
			<point x="363" y="494" type="line"/>
			<point x="333" y="494" type="line"/>
			<point x="333" y="372" type="line" smooth="yes"/>
			<point x="333" y="327"/>
			<point x="352" y="320"/>
			<point x="423" y="320" type="curve" smooth="yes"/>
			<point x="437" y="320"/>
			<point x="598" y="320"/>
			<point x="614" y="320" type="curve" smooth="yes"/>
			<point x="670" y="320"/>
			<point x="681" y="338"/>
			<point x="685" y="423" type="curve"/>
			<point x="676" y="425"/>
			<point x="665" y="428"/>
			<point x="657" y="434" type="curve"/>
			<point x="654" y="357"/>
			<point x="647" y="349"/>
			<point x="610" y="349" type="curve" smooth="yes"/>
			<point x="577" y="349"/>
			<point x="444" y="349"/>
			<point x="421" y="349" type="curve" smooth="yes"/>
			<point x="371" y="349"/>
			<point x="363" y="353"/>
		</contour>
		<contour>
			<point x="255" y="481" type="curve"/>
			<point x="229" y="490" type="line"/>
			<point x="210" y="426"/>
			<point x="173" y="362"/>
			<point x="110" y="328" type="curve"/>
			<point x="133" y="309" type="line"/>
			<point x="200" y="346"/>
			<point x="235" y="415"/>
		</contour>
		<contour>
			<point x="728" y="234" type="line"/>
			<point x="318" y="234" type="line"/>
			<point x="288" y="205" type="line"/>
			<point x="728" y="205" type="line"/>
		</contour>
		<contour>
			<point x="254" y="768" type="curve"/>
			<point x="227" y="778" type="line"/>
			<point x="207" y="721"/>
			<point x="169" y="664"/>
			<point x="129" y="631" type="curve"/>
			<point x="137" y="625"/>
			<point x="147" y="615"/>
			<point x="152" y="609" type="curve"/>
			<point x="191" y="643"/>
			<point x="230" y="704"/>
		</contour>
		<contour>
			<point x="828" y="798" type="curve"/>
			<point x="804" y="822" type="line"/>
			<point x="673" y="797"/>
			<point x="422" y="776"/>
			<point x="230" y="768" type="curve"/>
			<point x="233" y="761"/>
			<point x="237" y="749"/>
			<point x="238" y="742" type="curve"/>
			<point x="433" y="749"/>
			<point x="682" y="769"/>
		</contour>
		<contour>
			<point x="477" y="738" type="curve"/>
			<point x="451" y="732" type="line"/>
			<point x="474" y="694"/>
			<point x="493" y="648"/>
			<point x="500" y="613" type="curve"/>
			<point x="528" y="621" type="line"/>
			<point x="521" y="655"/>
			<point x="501" y="700"/>
		</contour>
		<contour>
			<point x="746" y="763" type="curve"/>
			<point x="723" y="749" type="line"/>
			<point x="771" y="709"/>
			<point x="816" y="657"/>
			<point x="840" y="616" type="curve"/>
			<point x="865" y="632" type="line"/>
			<point x="840" y="673"/>
			<point x="795" y="724"/>
		</contour>
	</outline>
</glyph>
<glyph name="uni63DE.HK" format="2">
	<advance width="1000" height="1000"/>
	<note>
		cid19260
	</note>
	<outline>
		<contour>
			<point x="362" y="616" type="line"/>
			<point x="48" y="616" type="line"/>
			<point x="48" y="587" type="line"/>
			<point x="362" y="587" type="line"/>
		</contour>
		<contour>
			<point x="234" y="-23" type="curve" smooth="yes"/>
			<point x="234" y="830" type="line"/>
			<point x="205" y="830" type="line"/>
			<point x="205" y="-24" type="line" smooth="yes"/>
			<point x="205" y="-39"/>
			<point x="199" y="-43"/>
			<point x="186" y="-43" type="curve" smooth="yes"/>
			<point x="174" y="-44"/>
			<point x="131" y="-44"/>
			<point x="80" y="-43" type="curve"/>
			<point x="84" y="-52"/>
			<point x="90" y="-64"/>
			<point x="92" y="-71" type="curve"/>
			<point x="155" y="-72"/>
			<point x="188" y="-71"/>
			<point x="207" y="-66" type="curve" smooth="yes"/>
			<point x="225" y="-60"/>
			<point x="234" y="-50"/>
		</contour>
		<contour>
			<point x="36" y="279" type="curve"/>
			<point x="47" y="248" type="line"/>
			<point x="143" y="280"/>
			<point x="263" y="322"/>
			<point x="367" y="359" type="curve"/>
			<point x="362" y="387" type="line"/>
			<point x="260" y="351"/>
			<point x="134" y="309"/>
		</contour>
		<contour>
			<point x="928" y="677" type="line"/>
			<point x="363" y="677" type="line"/>
			<point x="363" y="648" type="line"/>
			<point x="928" y="648" type="line"/>
		</contour>
		<contour>
			<point x="950" y="446" type="line"/>
			<point x="320" y="446" type="line"/>
			<point x="320" y="417" type="line"/>
			<point x="950" y="417" type="line"/>
		</contour>
		<contour>
			<point x="840" y="167" type="line"/>
			<point x="437" y="167" type="line"/>
			<point x="437" y="138" type="line"/>
			<point x="840" y="138" type="line"/>
		</contour>
		<contour>
			<point x="840" y="6" type="line"/>
			<point x="437" y="6" type="line"/>
			<point x="437" y="-23" type="line"/>
			<point x="840" y="-23" type="line"/>
		</contour>
		<contour>
			<point x="494" y="635" type="curve"/>
			<point x="467" y="627" type="line"/>
			<point x="494" y="567"/>
			<point x="515" y="502"/>
			<point x="522" y="457" type="curve"/>
			<point x="551" y="466" type="line"/>
			<point x="544" y="512"/>
			<point x="522" y="577"/>
		</contour>
		<contour>
			<point x="822" y="630" type="curve"/>
			<point x="791" y="641" type="line"/>
			<point x="771" y="583"/>
			<point x="743" y="515"/>
			<point x="717" y="464" type="curve"/>
			<point x="743" y="454" type="line"/>
			<point x="769" y="503"/>
			<point x="799" y="570"/>
		</contour>
		<contour>
			<point x="866" y="318" type="line"/>
			<point x="423" y="318" type="line"/>
			<point x="423" y="-72" type="line"/>
			<point x="452" y="-72" type="line"/>
			<point x="452" y="289" type="line"/>
			<point x="837" y="289" type="line"/>
			<point x="837" y="-68" type="line"/>
			<point x="866" y="-68" type="line"/>
		</contour>
		<contour>
			<point x="821" y="814" type="line"/>
			<point x="471" y="814" type="line"/>
			<point x="471" y="785" type="line"/>
			<point x="821" y="785" type="line"/>
		</contour>
	</outline>
</glyph>
<glyph name="uni6703.inherited" format="2">
	<advance width="1000" height="1000"/>
	<note>
		cid20684
	</note>
	<outline>
		<contour>
			<point x="204" y="336" type="line"/>
			<point x="204" y="511" type="line"/>
			<point x="808" y="511" type="line"/>
			<point x="808" y="336" type="line"/>
		</contour>
		<contour>
			<point x="837" y="540" type="line"/>
			<point x="175" y="540" type="line"/>
			<point x="175" y="307" type="line"/>
			<point x="837" y="307" type="line"/>
		</contour>
		<contour>
			<point x="676" y="642" type="line"/>
			<point x="331" y="642" type="line"/>
			<point x="331" y="613" type="line"/>
			<point x="676" y="613" type="line"/>
		</contour>
		<contour>
			<point x="513" y="532" type="line"/>
			<point x="483" y="532" type="line"/>
			<point x="483" y="325" type="line"/>
			<point x="513" y="325" type="line"/>
		</contour>
		<contour>
			<point x="496" y="803" type="curve"/>
			<point x="603" y="697"/>
			<point x="786" y="592"/>
			<point x="942" y="536" type="curve"/>
			<point x="946" y="543"/>
			<point x="954" y="556"/>
			<point x="960" y="562" type="curve"/>
			<point x="805" y="614"/>
			<point x="618" y="719"/>
			<point x="507" y="831" type="curve"/>
			<point x="479" y="831" type="line"/>
			<point x="394" y="727"/>
			<point x="221" y="617"/>
			<point x="45" y="550" type="curve"/>
			<point x="51" y="543"/>
			<point x="58" y="533"/>
			<point x="62" y="526" type="curve"/>
			<point x="236" y="595"/>
			<point x="407" y="706"/>
		</contour>
		<contour>
			<point x="316" y="487" type="curve"/>
			<point x="290" y="474" type="line"/>
			<point x="323" y="436"/>
			<point x="356" y="385"/>
			<point x="368" y="351" type="curve"/>
			<point x="395" y="367" type="line"/>
			<point x="382" y="401"/>
			<point x="349" y="451"/>
		</contour>
		<contour>
			<point x="708" y="474" type="curve"/>
			<point x="679" y="491" type="line"/>
			<point x="663" y="455"/>
			<point x="630" y="398"/>
			<point x="607" y="364" type="curve"/>
			<point x="630" y="350" type="line"/>
			<point x="654" y="382"/>
			<point x="684" y="431"/>
		</contour>
		<contour>
			<point x="777" y="244" type="line"/>
			<point x="238" y="244" type="line"/>
			<point x="238" y="-70" type="line"/>
			<point x="268" y="-70" type="line"/>
			<point x="268" y="215" type="line"/>
			<point x="748" y="215" type="line"/>
			<point x="748" y="-70" type="line"/>
			<point x="777" y="-70" type="line"/>
		</contour>
		<contour>
			<point x="698" y="121" type="line"/>
			<point x="258" y="121" type="line"/>
			<point x="258" y="91" type="line"/>
			<point x="698" y="91" type="line"/>
		</contour>
		<contour>
			<point x="763" y="-5" type="line"/>
			<point x="259" y="-5" type="line"/>
			<point x="259" y="-34" type="line"/>
			<point x="763" y="-34" type="line"/>
		</contour>
	</outline>
</glyph>
<glyph name="uni68D3.HK" format="2">
	<advance width="1000" height="1000"/>
	<note>
		cid21421
	</note>
	<outline>
		<contour>
			<point x="391" y="608" type="line"/>
			<point x="57" y="608" type="line"/>
			<point x="57" y="578" type="line"/>
			<point x="391" y="578" type="line"/>
		</contour>
		<contour>
			<point x="250" y="831" type="line"/>
			<point x="221" y="831" type="line"/>
			<point x="221" y="-68" type="line"/>
			<point x="250" y="-68" type="line"/>
		</contour>
		<contour>
			<point x="244" y="588" type="curve"/>
			<point x="218" y="596" type="line"/>
			<point x="184" y="436"/>
			<point x="103" y="247"/>
			<point x="30" y="154" type="curve"/>
			<point x="37" y="149"/>
			<point x="47" y="138"/>
			<point x="52" y="131" type="curve"/>
			<point x="128" y="229"/>
			<point x="208" y="428"/>
		</contour>
		<contour>
			<point x="247" y="492" type="curve"/>
			<point x="226" y="475" type="line"/>
			<point x="254" y="443"/>
			<point x="340" y="325"/>
			<point x="365" y="283" type="curve"/>
			<point x="390" y="309" type="line"/>
			<point x="369" y="339"/>
			<point x="273" y="464"/>
		</contour>
		<contour>
			<point x="927" y="672" type="line"/>
			<point x="397" y="672" type="line"/>
			<point x="397" y="642" type="line"/>
			<point x="927" y="642" type="line"/>
		</contour>
		<contour>
			<point x="857" y="8" type="line"/>
			<point x="464" y="8" type="line"/>
			<point x="464" y="-21" type="line"/>
			<point x="857" y="-21" type="line"/>
		</contour>
		<contour>
			<point x="951" y="409" type="line"/>
			<point x="373" y="409" type="line"/>
			<point x="373" y="380" type="line"/>
			<point x="951" y="380" type="line"/>
		</contour>
		<contour>
			<point x="832" y="801" type="line"/>
			<point x="492" y="801" type="line"/>
			<point x="492" y="772" type="line"/>
			<point x="832" y="772" type="line"/>
		</contour>
		<contour>
			<point x="873" y="280" type="line"/>
			<point x="448" y="280" type="line"/>
			<point x="448" y="-70" type="line"/>
			<point x="477" y="-70" type="line"/>
			<point x="477" y="251" type="line"/>
			<point x="844" y="251" type="line"/>
			<point x="844" y="-66" type="line"/>
			<point x="873" y="-66" type="line"/>
		</contour>
		<contour>
			<point x="845" y="612" type="curve"/>
			<point x="816" y="624" type="line"/>
			<point x="797" y="567"/>
			<point x="761" y="481"/>
			<point x="733" y="430" type="curve"/>
			<point x="758" y="420" type="line"/>
			<point x="785" y="470"/>
			<point x="819" y="549"/>
		</contour>
		<contour>
			<point x="501" y="622" type="curve"/>
			<point x="476" y="613" type="line"/>
			<point x="507" y="552"/>
			<point x="533" y="473"/>
			<point x="540" y="420" type="curve"/>
			<point x="568" y="430" type="line"/>
			<point x="561" y="482"/>
			<point x="533" y="562"/>
		</contour>
	</outline>
</glyph>
<glyph name="uni6BF0.HK" format="2">
	<advance width="1000" height="1000"/>
	<note>
		cid22896
	</note>
	<outline>
		<contour>
			<point x="419" y="809" type="curve"/>
			<point x="390" y="830" type="line"/>
			<point x="317" y="778"/>
			<point x="171" y="725"/>
			<point x="46" y="688" type="curve"/>
			<point x="50" y="681"/>
			<point x="56" y="671"/>
			<point x="58" y="665" type="curve"/>
			<point x="186" y="702"/>
			<point x="331" y="753"/>
		</contour>
		<contour>
			<point x="255" y="77" type="curve" smooth="yes"/>
			<point x="255" y="735" type="line"/>
			<point x="226" y="735" type="line"/>
			<point x="226" y="79" type="line" smooth="yes"/>
			<point x="226" y="-17"/>
			<point x="266" y="-40"/>
			<point x="390" y="-40" type="curve" smooth="yes"/>
			<point x="418" y="-40"/>
			<point x="781" y="-40"/>
			<point x="812" y="-40" type="curve" smooth="yes"/>
			<point x="928" y="-40"/>
			<point x="944" y="-2"/>
			<point x="955" y="115" type="curve"/>
			<point x="945" y="117"/>
			<point x="932" y="122"/>
			<point x="923" y="128" type="curve"/>
			<point x="915" y="18"/>
			<point x="901" y="-11"/>
			<point x="819" y="-11" type="curve" smooth="yes"/>
			<point x="747" y="-11"/>
			<point x="434" y="-11"/>
			<point x="381" y="-11" type="curve" smooth="yes"/>
			<point x="277" y="-11"/>
			<point x="255" y="12"/>
		</contour>
		<contour>
			<point x="413" y="561" type="line"/>
			<point x="65" y="484" type="line"/>
			<point x="72" y="458" type="line"/>
			<point x="420" y="534" type="line"/>
		</contour>
		<contour>
			<point x="445" y="344" type="line"/>
			<point x="46" y="257" type="line"/>
			<point x="53" y="230" type="line"/>
			<point x="452" y="318" type="line"/>
		</contour>
		<contour>
			<point x="923" y="692" type="line"/>
			<point x="469" y="692" type="line"/>
			<point x="469" y="662" type="line"/>
			<point x="923" y="662" type="line"/>
		</contour>
		<contour>
			<point x="958" y="475" type="line"/>
			<point x="433" y="475" type="line"/>
			<point x="433" y="446" type="line"/>
			<point x="958" y="446" type="line"/>
		</contour>
		<contour>
			<point x="872" y="366" type="line"/>
			<point x="516" y="366" type="line"/>
			<point x="516" y="120" type="line"/>
			<point x="872" y="120" type="line"/>
		</contour>
		<contour>
			<point x="545" y="149" type="line"/>
			<point x="545" y="337" type="line"/>
			<point x="843" y="337" type="line"/>
			<point x="843" y="149" type="line"/>
		</contour>
		<contour>
			<point x="841" y="801" type="line"/>
			<point x="551" y="801" type="line"/>
			<point x="551" y="772" type="line"/>
			<point x="841" y="772" type="line"/>
		</contour>
		<contour>
			<point x="571" y="644" type="curve"/>
			<point x="543" y="636" type="line"/>
			<point x="566" y="589"/>
			<point x="586" y="528"/>
			<point x="592" y="488" type="curve"/>
			<point x="622" y="497" type="line"/>
			<point x="616" y="537"/>
			<point x="597" y="598"/>
		</contour>
		<contour>
			<point x="851" y="637" type="curve"/>
			<point x="819" y="651" type="line"/>
			<point x="807" y="606"/>
			<point x="779" y="536"/>
			<point x="760" y="495" type="curve"/>
			<point x="785" y="483" type="line"/>
			<point x="806" y="523"/>
			<point x="830" y="586"/>
		</contour>
	</outline>
</glyph>
<glyph name="uni6DAA.HK" format="2">
	<advance width="1000" height="1000"/>
	<note>
		cid23560
	</note>
	<outline>
		<contour>
			<point x="114" y="818" type="curve"/>
			<point x="96" y="798" type="line"/>
			<point x="161" y="767"/>
			<point x="236" y="717"/>
			<point x="275" y="679" type="curve"/>
			<point x="292" y="704" type="line"/>
			<point x="255" y="740"/>
			<point x="179" y="788"/>
		</contour>
		<contour>
			<point x="65" y="549" type="curve"/>
			<point x="48" y="527" type="line"/>
			<point x="114" y="499"/>
			<point x="191" y="453"/>
			<point x="231" y="419" type="curve"/>
			<point x="248" y="444" type="line"/>
			<point x="209" y="477"/>
			<point x="131" y="523"/>
		</contour>
		<contour>
			<point x="78" y="-35" type="curve"/>
			<point x="103" y="-55" type="line"/>
			<point x="157" y="33"/>
			<point x="229" y="170"/>
			<point x="278" y="276" type="curve"/>
			<point x="256" y="294" type="line"/>
			<point x="203" y="182"/>
			<point x="129" y="44"/>
		</contour>
		<contour>
			<point x="853" y="12" type="line"/>
			<point x="425" y="12" type="line"/>
			<point x="425" y="-17" type="line"/>
			<point x="853" y="-17" type="line"/>
		</contour>
		<contour>
			<point x="824" y="800" type="line"/>
			<point x="450" y="800" type="line"/>
			<point x="450" y="771" type="line"/>
			<point x="824" y="771" type="line"/>
		</contour>
		<contour>
			<point x="868" y="285" type="line"/>
			<point x="409" y="285" type="line"/>
			<point x="409" y="-70" type="line"/>
			<point x="438" y="-70" type="line"/>
			<point x="438" y="256" type="line"/>
			<point x="838" y="256" type="line"/>
			<point x="838" y="-67" type="line"/>
			<point x="868" y="-67" type="line"/>
		</contour>
		<contour>
			<point x="926" y="674" type="line"/>
			<point x="348" y="674" type="line"/>
			<point x="348" y="645" type="line"/>
			<point x="926" y="645" type="line"/>
		</contour>
		<contour>
			<point x="952" y="411" type="line"/>
			<point x="307" y="411" type="line"/>
			<point x="307" y="382" type="line"/>
			<point x="952" y="382" type="line"/>
		</contour>
		<contour>
			<point x="823" y="612" type="curve"/>
			<point x="793" y="624" type="line"/>
			<point x="775" y="561"/>
			<point x="749" y="495"/>
			<point x="722" y="439" type="curve"/>
			<point x="746" y="429" type="line"/>
			<point x="775" y="484"/>
			<point x="797" y="543"/>
		</contour>
		<contour>
			<point x="467" y="618" type="curve"/>
			<point x="442" y="608" type="line"/>
			<point x="478" y="543"/>
			<point x="494" y="488"/>
			<point x="505" y="432" type="curve"/>
			<point x="532" y="442" type="line"/>
			<point x="521" y="498"/>
			<point x="504" y="553"/>
		</contour>
	</outline>
</glyph>
<glyph name="uni74FF.HK" format="2">
	<advance width="1000" height="1000"/>
	<note>
		cid26964
	</note>
	<outline>
		<contour>
			<point x="953" y="772" type="line"/>
			<point x="502" y="772" type="line"/>
			<point x="502" y="743" type="line"/>
			<point x="953" y="743" type="line"/>
		</contour>
		<contour>
			<point x="635" y="765" type="curve"/>
			<point x="606" y="765" type="line"/>
			<point x="596" y="531"/>
			<point x="570" y="175"/>
			<point x="549" y="-13" type="curve"/>
			<point x="579" y="-13" type="line"/>
			<point x="599" y="173"/>
			<point x="623" y="526"/>
		</contour>
		<contour>
			<point x="472" y="-18" type="curve"/>
			<point x="484" y="-47" type="line"/>
			<point x="574" y="-27"/>
			<point x="695" y="0"/>
			<point x="811" y="28" type="curve"/>
			<point x="808" y="53" type="line"/>
			<point x="683" y="26"/>
			<point x="556" y="-2"/>
		</contour>
		<contour>
			<point x="681" y="413" type="curve"/>
			<point x="657" y="404" type="line"/>
			<point x="697" y="337"/>
			<point x="736" y="247"/>
			<point x="752" y="188" type="curve"/>
			<point x="778" y="198" type="line"/>
			<point x="764" y="256"/>
			<point x="723" y="345"/>
		</contour>
		<contour>
			<point x="868" y="561" type="curve"/>
			<point x="839" y="561" type="line"/>
			<point x="842" y="164"/>
			<point x="835" y="-71"/>
			<point x="909" y="-71" type="curve" smooth="yes"/>
			<point x="945" y="-71"/>
			<point x="952" y="-41"/>
			<point x="956" y="71" type="curve"/>
			<point x="949" y="73"/>
			<point x="937" y="79"/>
			<point x="930" y="83" type="curve"/>
			<point x="929" y="13"/>
			<point x="925" y="-43"/>
			<point x="912" y="-43" type="curve" smooth="yes"/>
			<point x="866" y="-43"/>
			<point x="868" y="240"/>
		</contour>
		<contour>
			<point x="856" y="561" type="line"/>
			<point x="608" y="561" type="line"/>
			<point x="605" y="531" type="line"/>
			<point x="856" y="531" type="line"/>
		</contour>
		<contour>
			<point x="486" y="674" type="line"/>
			<point x="76" y="674" type="line"/>
			<point x="76" y="644" type="line"/>
			<point x="486" y="644" type="line"/>
		</contour>
		<contour>
			<point x="504" y="410" type="line"/>
			<point x="49" y="410" type="line"/>
			<point x="49" y="381" type="line"/>
			<point x="504" y="381" type="line"/>
		</contour>
		<contour>
			<point x="411" y="800" type="line"/>
			<point x="151" y="800" type="line"/>
			<point x="151" y="771" type="line"/>
			<point x="411" y="771" type="line"/>
		</contour>
		<contour>
			<point x="164" y="617" type="curve"/>
			<point x="137" y="611" type="line"/>
			<point x="163" y="550"/>
			<point x="182" y="481"/>
			<point x="187" y="431" type="curve"/>
			<point x="216" y="439" type="line"/>
			<point x="210" y="488"/>
			<point x="190" y="557"/>
		</contour>
		<contour>
			<point x="420" y="607" type="curve"/>
			<point x="387" y="617" type="line"/>
			<point x="369" y="556"/>
			<point x="344" y="488"/>
			<point x="322" y="441" type="curve"/>
			<point x="349" y="431" type="line"/>
			<point x="369" y="474"/>
			<point x="397" y="541"/>
		</contour>
		<contour>
			<point x="421" y="19" type="line"/>
			<point x="129" y="19" type="line"/>
			<point x="129" y="-11" type="line"/>
			<point x="421" y="-11" type="line"/>
		</contour>
		<contour>
			<point x="433" y="284" type="line"/>
			<point x="115" y="284" type="line"/>
			<point x="115" y="-67" type="line"/>
			<point x="144" y="-67" type="line"/>
			<point x="144" y="255" type="line"/>
			<point x="404" y="255" type="line"/>
			<point x="404" y="-61" type="line"/>
			<point x="433" y="-61" type="line"/>
		</contour>
	</outline>
</glyph>
<glyph name="uni789A.HK" format="2">
	<advance width="1000" height="1000"/>
	<note>
		cid28535
	</note>
	<outline>
		<contour>
			<point x="411" y="758" type="line"/>
			<point x="53" y="758" type="line"/>
			<point x="53" y="728" type="line"/>
			<point x="411" y="728" type="line"/>
		</contour>
		<contour>
			<point x="375" y="466" type="line"/>
			<point x="147" y="466" type="line"/>
			<point x="147" y="436" type="line"/>
			<point x="345" y="436" type="line"/>
			<point x="345" y="91" type="line"/>
			<point x="147" y="91" type="line"/>
			<point x="147" y="62" type="line"/>
			<point x="375" y="62" type="line"/>
		</contour>
		<contour>
			<point x="221" y="744" type="curve"/>
			<point x="190" y="748" type="line"/>
			<point x="164" y="556"/>
			<point x="120" y="376"/>
			<point x="41" y="257" type="curve"/>
			<point x="49" y="252"/>
			<point x="62" y="243"/>
			<point x="68" y="238" type="curve"/>
			<point x="144" y="363"/>
			<point x="191" y="543"/>
		</contour>
		<contour>
			<point x="162" y="466" type="line"/>
			<point x="133" y="466" type="line"/>
			<point x="133" y="-24" type="line"/>
			<point x="162" y="-24" type="line"/>
		</contour>
		<contour>
			<point x="841" y="801" type="line"/>
			<point x="511" y="801" type="line"/>
			<point x="511" y="772" type="line"/>
			<point x="841" y="772" type="line"/>
		</contour>
		<contour>
			<point x="842" y="613" type="curve"/>
			<point x="810" y="624" type="line"/>
			<point x="793" y="562"/>
			<point x="765" y="489"/>
			<point x="739" y="436" type="curve"/>
			<point x="765" y="427" type="line"/>
			<point x="788" y="476"/>
			<point x="818" y="548"/>
		</contour>
		<contour>
			<point x="538" y="624" type="curve"/>
			<point x="512" y="617" type="line"/>
			<point x="537" y="558"/>
			<point x="558" y="486"/>
			<point x="565" y="428" type="curve"/>
			<point x="593" y="435" type="line"/>
			<point x="587" y="493"/>
			<point x="566" y="566"/>
		</contour>
		<contour>
			<point x="885" y="283" type="line"/>
			<point x="471" y="283" type="line"/>
			<point x="471" y="-72" type="line"/>
			<point x="500" y="-72" type="line"/>
			<point x="500" y="254" type="line"/>
			<point x="856" y="254" type="line"/>
			<point x="856" y="-68" type="line"/>
			<point x="885" y="-68" type="line"/>
		</contour>
		<contour>
			<point x="872" y="9" type="line"/>
			<point x="488" y="9" type="line"/>
			<point x="488" y="-20" type="line"/>
			<point x="872" y="-20" type="line"/>
		</contour>
		<contour>
			<point x="952" y="411" type="line"/>
			<point x="395" y="411" type="line"/>
			<point x="395" y="381" type="line"/>
			<point x="952" y="381" type="line"/>
		</contour>
		<contour>
			<point x="921" y="675" type="line"/>
			<point x="431" y="675" type="line"/>
			<point x="431" y="646" type="line"/>
			<point x="921" y="646" type="line"/>
		</contour>
	</outline>
</glyph>
<glyph name="uni7BF0.HK" format="2">
	<advance width="1000" height="1000"/>
	<note>
		cid30201
	</note>
	<outline>
		<contour>
			<point x="487" y="734" type="line"/>
			<point x="156" y="734" type="line"/>
			<point x="156" y="705" type="line"/>
			<point x="487" y="705" type="line"/>
		</contour>
		<contour>
			<point x="938" y="734" type="line"/>
			<point x="531" y="734" type="line"/>
			<point x="531" y="705" type="line"/>
			<point x="938" y="705" type="line"/>
		</contour>
		<contour>
			<point x="224" y="825" type="curve"/>
			<point x="195" y="832" type="line"/>
			<point x="162" y="741"/>
			<point x="108" y="654"/>
			<point x="46" y="593" type="curve"/>
			<point x="54" y="589"/>
			<point x="67" y="580"/>
			<point x="72" y="575" type="curve"/>
			<point x="132" y="637"/>
			<point x="188" y="730"/>
		</contour>
		<contour>
			<point x="603" y="825" type="curve"/>
			<point x="574" y="832" type="line"/>
			<point x="544" y="749"/>
			<point x="486" y="665"/>
			<point x="423" y="614" type="curve"/>
			<point x="431" y="609"/>
			<point x="443" y="599"/>
			<point x="448" y="594" type="curve"/>
			<point x="509" y="646"/>
			<point x="569" y="735"/>
		</contour>
		<contour>
			<point x="257" y="722" type="curve"/>
			<point x="231" y="712" type="line"/>
			<point x="262" y="674"/>
			<point x="287" y="629"/>
			<point x="297" y="596" type="curve"/>
			<point x="323" y="608" type="line"/>
			<point x="312" y="641"/>
			<point x="287" y="685"/>
		</contour>
		<contour>
			<point x="660" y="725" type="curve"/>
			<point x="634" y="715" type="line"/>
			<point x="669" y="673"/>
			<point x="704" y="618"/>
			<point x="718" y="580" type="curve"/>
			<point x="745" y="593" type="line"/>
			<point x="730" y="630"/>
			<point x="694" y="685"/>
		</contour>
		<contour>
			<point x="549" y="483" type="line"/>
			<point x="85" y="483" type="line"/>
			<point x="85" y="454" type="line"/>
			<point x="549" y="454" type="line"/>
		</contour>
		<contour>
			<point x="574" y="293" type="line"/>
			<point x="49" y="293" type="line"/>
			<point x="49" y="264" type="line"/>
			<point x="574" y="264" type="line"/>
		</contour>
		<contour>
			<point x="490" y="11" type="line"/>
			<point x="150" y="11" type="line"/>
			<point x="150" y="-19" type="line"/>
			<point x="490" y="-19" type="line"/>
		</contour>
		<contour>
			<point x="472" y="577" type="line"/>
			<point x="162" y="577" type="line"/>
			<point x="162" y="548" type="line"/>
			<point x="472" y="548" type="line"/>
		</contour>
		<contour>
			<point x="506" y="199" type="line"/>
			<point x="133" y="199" type="line"/>
			<point x="133" y="-66" type="line"/>
			<point x="162" y="-66" type="line"/>
			<point x="162" y="169" type="line"/>
			<point x="476" y="169" type="line"/>
			<point x="476" y="-50" type="line"/>
			<point x="506" y="-50" type="line"/>
		</contour>
		<contour>
			<point x="912" y="558" type="line"/>
			<point x="623" y="558" type="line"/>
			<point x="623" y="-70" type="line"/>
			<point x="652" y="-70" type="line"/>
			<point x="652" y="528" type="line"/>
			<point x="912" y="528" type="line"/>
		</contour>
		<contour>
			<point x="190" y="441" type="curve"/>
			<point x="162" y="433" type="line"/>
			<point x="185" y="391"/>
			<point x="205" y="336"/>
			<point x="211" y="300" type="curve"/>
			<point x="241" y="309" type="line"/>
			<point x="235" y="345"/>
			<point x="216" y="400"/>
		</contour>
		<contour>
			<point x="470" y="433" type="curve"/>
			<point x="438" y="447" type="line"/>
			<point x="424" y="407"/>
			<point x="395" y="346"/>
			<point x="374" y="310" type="curve"/>
			<point x="400" y="298" type="line"/>
			<point x="422" y="334"/>
			<point x="448" y="388"/>
		</contour>
		<contour>
			<point x="908" y="558" type="line"/>
			<point x="902" y="558" type="line"/>
			<point x="902" y="553" type="line"/>
			<point x="866" y="488"/>
			<point x="812" y="400"/>
			<point x="754" y="319" type="curve"/>
			<point x="862" y="248"/>
			<point x="898" y="191"/>
			<point x="899" y="138" type="curve" smooth="yes"/>
			<point x="899" y="108"/>
			<point x="890" y="83"/>
			<point x="868" y="73" type="curve" smooth="yes"/>
			<point x="855" y="67"/>
			<point x="840" y="63"/>
			<point x="823" y="62" type="curve" smooth="yes"/>
			<point x="797" y="60"/>
			<point x="760" y="60"/>
			<point x="721" y="64" type="curve"/>
			<point x="726" y="56"/>
			<point x="731" y="43"/>
			<point x="732" y="34" type="curve"/>
			<point x="764" y="33"/>
			<point x="800" y="33"/>
			<point x="829" y="34" type="curve" smooth="yes"/>
			<point x="849" y="36"/>
			<point x="869" y="41"/>
			<point x="884" y="50" type="curve" smooth="yes"/>
			<point x="914" y="66"/>
			<point x="927" y="98"/>
			<point x="927" y="138" type="curve" smooth="yes"/>
			<point x="926" y="195"/>
			<point x="895" y="254"/>
			<point x="791" y="325" type="curve"/>
			<point x="839" y="393"/>
			<point x="891" y="475"/>
			<point x="933" y="544" type="curve"/>
			<point x="914" y="560" type="line"/>
		</contour>
	</outline>
</glyph>
<glyph name="uni7D00.HK" format="2">
	<advance width="1000" height="1000"/>
	<note>
		cid30804
	</note>
	<outline>
		<contour>
			<point x="903" y="775" type="line"/>
			<point x="480" y="775" type="line"/>
			<point x="480" y="746" type="line"/>
			<point x="873" y="746" type="line"/>
			<point x="873" y="359" type="line"/>
			<point x="903" y="359" type="line"/>
		</contour>
		<contour>
			<point x="888" y="446" type="line"/>
			<point x="525" y="446" type="line"/>
			<point x="525" y="417" type="line"/>
			<point x="888" y="417" type="line"/>
		</contour>
		<contour>
			<point x="543" y="9" type="curve" smooth="yes"/>
			<point x="543" y="626" type="line"/>
			<point x="514" y="626" type="line"/>
			<point x="514" y="9" type="line" smooth="yes"/>
			<point x="514" y="-53"/>
			<point x="538" y="-65"/>
			<point x="621" y="-65" type="curve" smooth="yes"/>
			<point x="639" y="-65"/>
			<point x="837" y="-65"/>
			<point x="858" y="-65" type="curve" smooth="yes"/>
			<point x="939" y="-65"/>
			<point x="952" y="-30"/>
			<point x="958" y="106" type="curve"/>
			<point x="949" y="109"/>
			<point x="937" y="114"/>
			<point x="928" y="120" type="curve"/>
			<point x="923" y="-12"/>
			<point x="915" y="-36"/>
			<point x="859" y="-36" type="curve" smooth="yes"/>
			<point x="817" y="-36"/>
			<point x="648" y="-36"/>
			<point x="618" y="-36" type="curve" smooth="yes"/>
			<point x="556" y="-36"/>
			<point x="543" y="-27"/>
		</contour>
		<contour>
			<point x="278" y="379" type="line"/>
			<point x="248" y="379" type="line"/>
			<point x="248" y="-70" type="line"/>
			<point x="278" y="-70" type="line"/>
		</contour>
		<contour>
			<point x="261" y="817" type="curve"/>
			<point x="232" y="831" type="line"/>
			<point x="197" y="766"/>
			<point x="134" y="669"/>
			<point x="86" y="613" type="curve"/>
			<point x="109" y="600" type="line"/>
			<point x="157" y="656"/>
			<point x="219" y="746"/>
		</contour>
		<contour>
			<point x="390" y="707" type="curve"/>
			<point x="361" y="721" type="line"/>
			<point x="294" y="615"/>
			<point x="178" y="462"/>
			<point x="90" y="374" type="curve"/>
			<point x="113" y="361" type="line"/>
			<point x="201" y="449"/>
			<point x="314" y="596"/>
		</contour>
		<contour>
			<point x="68" y="652" type="curve"/>
			<point x="50" y="634" type="line"/>
			<point x="109" y="591"/>
			<point x="175" y="529"/>
			<point x="207" y="487" type="curve"/>
			<point x="225" y="509" type="line"/>
			<point x="193" y="549"/>
			<point x="127" y="610"/>
		</contour>
		<contour>
			<point x="343" y="513" type="curve"/>
			<point x="318" y="500" type="line"/>
			<point x="370" y="438"/>
			<point x="425" y="353"/>
			<point x="448" y="299" type="curve"/>
			<point x="474" y="314" type="line"/>
			<point x="451" y="368"/>
			<point x="395" y="451"/>
		</contour>
		<contour>
			<point x="40" y="385" type="curve"/>
			<point x="43" y="354" type="line"/>
			<point x="140" y="358"/>
			<point x="280" y="365"/>
			<point x="419" y="373" type="curve"/>
			<point x="420" y="401" type="line"/>
			<point x="276" y="394"/>
			<point x="134" y="388"/>
		</contour>
		<contour>
			<point x="378" y="278" type="curve"/>
			<point x="353" y="270" type="line"/>
			<point x="388" y="209"/>
			<point x="424" y="127"/>
			<point x="436" y="74" type="curve"/>
			<point x="464" y="83" type="line"/>
			<point x="451" y="136"/>
			<point x="416" y="218"/>
		</contour>
		<contour>
			<point x="155" y="269" type="curve"/>
			<point x="125" y="275" type="line"/>
			<point x="107" y="184"/>
			<point x="80" y="95"/>
			<point x="38" y="32" type="curve"/>
			<point x="46" y="29"/>
			<point x="61" y="21"/>
			<point x="67" y="18" type="curve"/>
			<point x="104" y="81"/>
			<point x="135" y="175"/>
		</contour>
	</outline>
</glyph>
<glyph name="uni87D1.HK" format="2">
	<advance width="1000"/>
	<outline>
		<contour>
			<point x="859" y="801" type="line"/>
			<point x="488" y="801" type="line"/>
			<point x="488" y="772" type="line"/>
			<point x="859" y="772" type="line"/>
		</contour>
		<contour>
			<point x="928" y="706" type="line"/>
			<point x="425" y="706" type="line"/>
			<point x="425" y="677" type="line"/>
			<point x="928" y="677" type="line"/>
		</contour>
		<contour>
			<point x="951" y="561" type="line"/>
			<point x="391" y="561" type="line"/>
			<point x="391" y="532" type="line"/>
			<point x="951" y="532" type="line"/>
		</contour>
		<contour>
			<point x="951" y="121" type="line"/>
			<point x="379" y="121" type="line"/>
			<point x="379" y="91" type="line"/>
			<point x="951" y="91" type="line"/>
		</contour>
		<contour>
			<point x="684" y="225" type="line"/>
			<point x="655" y="225" type="line"/>
			<point x="655" y="-68" type="line"/>
			<point x="684" y="-68" type="line"/>
		</contour>
		<contour>
			<point x="545" y="680" type="curve"/>
			<point x="520" y="672" type="line"/>
			<point x="538" y="637"/>
			<point x="557" y="590"/>
			<point x="565" y="560" type="curve"/>
			<point x="592" y="570" type="line"/>
			<point x="583" y="599"/>
			<point x="564" y="645"/>
		</contour>
		<contour>
			<point x="486" y="239" type="line"/>
			<point x="486" y="324" type="line"/>
			<point x="860" y="324" type="line"/>
			<point x="860" y="239" type="line"/>
		</contour>
		<contour>
			<point x="486" y="354" type="line"/>
			<point x="486" y="437" type="line"/>
			<point x="860" y="437" type="line"/>
			<point x="860" y="354" type="line"/>
		</contour>
		<contour>
			<point x="889" y="466" type="line"/>
			<point x="457" y="466" type="line"/>
			<point x="457" y="210" type="line"/>
			<point x="889" y="210" type="line"/>
		</contour>
		<contour>
			<point x="832" y="669" type="curve"/>
			<point x="805" y="679" type="line"/>
			<point x="792" y="647"/>
			<point x="769" y="599"/>
			<point x="750" y="569" type="curve"/>
			<point x="773" y="560" type="line"/>
			<point x="793" y="589"/>
			<point x="814" y="631"/>
		</contour>
		<contour>
			<point x="50" y="26" type="curve"/>
			<point x="57" y="-4" type="line"/>
			<point x="136" y="18"/>
			<point x="242" y="47"/>
			<point x="346" y="76" type="curve"/>
			<point x="343" y="104" type="line"/>
			<point x="232" y="74"/>
			<point x="124" y="44"/>
		</contour>
		<contour>
			<point x="318" y="222" type="curve"/>
			<point x="292" y="216" type="line"/>
			<point x="319" y="138"/>
			<point x="344" y="38"/>
			<point x="353" y="-28" type="curve"/>
			<point x="380" y="-21" type="line"/>
			<point x="372" y="44"/>
			<point x="346" y="144"/>
		</contour>
		<contour>
			<point x="231" y="822" type="line"/>
			<point x="202" y="822" type="line"/>
			<point x="202" y="637" type="line"/>
			<point x="231" y="637" type="line"/>
		</contour>
		<contour>
			<point x="357" y="655" type="line"/>
			<point x="100" y="655" type="line"/>
			<point x="100" y="625" type="line"/>
			<point x="328" y="625" type="line"/>
			<point x="328" y="335" type="line"/>
			<point x="100" y="335" type="line"/>
			<point x="100" y="306" type="line"/>
			<point x="357" y="306" type="line"/>
		</contour>
		<contour>
			<point x="114" y="655" type="line"/>
			<point x="84" y="655" type="line"/>
			<point x="84" y="253" type="line"/>
			<point x="114" y="253" type="line"/>
		</contour>
		<contour>
			<point x="231" y="646" type="line"/>
			<point x="202" y="646" type="line"/>
			<point x="202" y="329" type="line"/>
			<point x="202" y="329" type="line"/>
			<point x="202" y="61" type="line"/>
			<point x="231" y="61" type="line"/>
			<point x="231" y="329" type="line"/>
			<point x="231" y="329" type="line"/>
		</contour>
	</outline>
</glyph>
<glyph name="uni8CE0.HK" format="2">
	<advance width="1000" height="1000"/>
	<note>
		cid38877
	</note>
	<outline>
		<contour>
			<point x="865" y="5" type="line"/>
			<point x="493" y="5" type="line"/>
			<point x="493" y="-24" type="line"/>
			<point x="865" y="-24" type="line"/>
		</contour>
		<contour>
			<point x="841" y="801" type="line"/>
			<point x="501" y="801" type="line"/>
			<point x="501" y="772" type="line"/>
			<point x="841" y="772" type="line"/>
		</contour>
		<contour>
			<point x="878" y="284" type="line"/>
			<point x="478" y="284" type="line"/>
			<point x="478" y="-71" type="line"/>
			<point x="508" y="-71" type="line"/>
			<point x="508" y="255" type="line"/>
			<point x="849" y="255" type="line"/>
			<point x="849" y="-67" type="line"/>
			<point x="878" y="-67" type="line"/>
		</contour>
		<contour>
			<point x="951" y="411" type="line"/>
			<point x="399" y="411" type="line"/>
			<point x="399" y="381" type="line"/>
			<point x="951" y="381" type="line"/>
		</contour>
		<contour>
			<point x="844" y="612" type="curve"/>
			<point x="814" y="622" type="line"/>
			<point x="800" y="568"/>
			<point x="771" y="489"/>
			<point x="749" y="440" type="curve"/>
			<point x="773" y="431" type="line"/>
			<point x="797" y="479"/>
			<point x="822" y="551"/>
		</contour>
		<contour>
			<point x="528" y="621" type="curve"/>
			<point x="501" y="614" type="line"/>
			<point x="526" y="556"/>
			<point x="547" y="481"/>
			<point x="551" y="432" type="curve"/>
			<point x="581" y="440" type="line"/>
			<point x="576" y="488"/>
			<point x="556" y="563"/>
		</contour>
		<contour>
			<point x="920" y="675" type="line"/>
			<point x="422" y="675" type="line"/>
			<point x="422" y="645" type="line"/>
			<point x="920" y="645" type="line"/>
		</contour>
		<contour>
			<point x="180" y="139" type="curve"/>
			<point x="149" y="145" type="line"/>
			<point x="129" y="71"/>
			<point x="93" y="0"/>
			<point x="46" y="-49" type="curve"/>
			<point x="54" y="-54"/>
			<point x="67" y="-65"/>
			<point x="72" y="-70" type="curve"/>
			<point x="118" y="-18"/>
			<point x="157" y="59"/>
		</contour>
		<contour>
			<point x="311" y="143" type="curve"/>
			<point x="285" y="131" type="line"/>
			<point x="317" y="84"/>
			<point x="352" y="22"/>
			<point x="368" y="-18" type="curve"/>
			<point x="395" y="-4" type="line"/>
			<point x="379" y="36"/>
			<point x="344" y="97"/>
		</contour>
		<contour>
			<point x="120" y="405" type="line"/>
			<point x="120" y="570" type="line"/>
			<point x="342" y="570" type="line"/>
			<point x="342" y="405" type="line"/>
		</contour>
		<contour>
			<point x="120" y="209" type="line"/>
			<point x="120" y="376" type="line"/>
			<point x="342" y="376" type="line"/>
			<point x="342" y="209" type="line"/>
		</contour>
		<contour>
			<point x="120" y="599" type="line"/>
			<point x="120" y="763" type="line"/>
			<point x="342" y="763" type="line"/>
			<point x="342" y="599" type="line"/>
		</contour>
		<contour>
			<point x="372" y="792" type="line"/>
			<point x="90" y="792" type="line"/>
			<point x="90" y="180" type="line"/>
			<point x="372" y="180" type="line"/>
		</contour>
	</outline>
</glyph>
<glyph name="uni8E66.JP" format="2">
	<advance width="1000"/>
	<outline>
		<contour>
			<point x="470" y="404" type="curve"/>
			<point x="450" y="386" type="line"/>
			<point x="488" y="364"/>
			<point x="534" y="331"/>
			<point x="559" y="310" type="curve"/>
			<point x="578" y="330" type="line"/>
			<point x="554" y="352"/>
			<point x="507" y="383"/>
		</contour>
		<contour>
			<point x="472" y="255" type="curve"/>
			<point x="450" y="238" type="line"/>
			<point x="488" y="213"/>
			<point x="535" y="177"/>
			<point x="560" y="152" type="curve"/>
			<point x="580" y="173" type="line"/>
			<point x="557" y="196"/>
			<point x="510" y="231"/>
		</contour>
		<contour>
			<point x="757" y="404" type="curve"/>
			<point x="737" y="386" type="line"/>
			<point x="777" y="363"/>
			<point x="827" y="328"/>
			<point x="853" y="306" type="curve"/>
			<point x="872" y="327" type="line"/>
			<point x="847" y="349"/>
			<point x="797" y="382"/>
		</contour>
		<contour>
			<point x="759" y="255" type="curve"/>
			<point x="737" y="238" type="line"/>
			<point x="779" y="211"/>
			<point x="831" y="171"/>
			<point x="858" y="145" type="curve"/>
			<point x="878" y="166" type="line"/>
			<point x="852" y="191"/>
			<point x="800" y="229"/>
		</contour>
		<contour>
			<point x="666" y="825" type="line"/>
			<point x="636" y="825" type="line"/>
			<point x="636" y="618" type="line"/>
			<point x="666" y="618" type="line"/>
		</contour>
		<contour>
			<point x="426" y="785" type="line"/>
			<point x="396" y="785" type="line"/>
			<point x="396" y="604" type="line"/>
			<point x="920" y="604" type="line"/>
			<point x="920" y="785" type="line"/>
			<point x="891" y="785" type="line"/>
			<point x="891" y="633" type="line"/>
			<point x="426" y="633" type="line"/>
		</contour>
		<contour>
			<point x="434" y="270" type="curve" smooth="yes"/>
			<point x="434" y="526" type="line"/>
			<point x="405" y="526" type="line"/>
			<point x="405" y="270" type="line" smooth="yes"/>
			<point x="405" y="168"/>
			<point x="394" y="39"/>
			<point x="311" y="-53" type="curve"/>
			<point x="318" y="-57"/>
			<point x="329" y="-65"/>
			<point x="334" y="-70" type="curve"/>
			<point x="421" y="25"/>
			<point x="434" y="164"/>
		</contour>
		<contour>
			<point x="606" y="526" type="line"/>
			<point x="420" y="526" type="line"/>
			<point x="420" y="497" type="line"/>
			<point x="606" y="497" type="line"/>
		</contour>
		<contour>
			<point x="617" y="-21" type="curve" smooth="yes"/>
			<point x="617" y="526" type="line"/>
			<point x="587" y="526" type="line"/>
			<point x="587" y="-22" type="line" smooth="yes"/>
			<point x="587" y="-33"/>
			<point x="584" y="-36"/>
			<point x="574" y="-36" type="curve" smooth="yes"/>
			<point x="563" y="-37"/>
			<point x="529" y="-37"/>
			<point x="487" y="-36" type="curve"/>
			<point x="492" y="-45"/>
			<point x="497" y="-58"/>
			<point x="499" y="-66" type="curve"/>
			<point x="548" y="-66"/>
			<point x="578" y="-65"/>
			<point x="595" y="-61" type="curve" smooth="yes"/>
			<point x="612" y="-55"/>
			<point x="617" y="-44"/>
		</contour>
		<contour>
			<point x="719" y="260" type="curve" smooth="yes"/>
			<point x="719" y="526" type="line"/>
			<point x="689" y="526" type="line"/>
			<point x="689" y="260" type="line" smooth="yes"/>
			<point x="689" y="165"/>
			<point x="683" y="43"/>
			<point x="624" y="-45" type="curve"/>
			<point x="632" y="-48"/>
			<point x="644" y="-56"/>
			<point x="649" y="-62" type="curve"/>
			<point x="709" y="29"/>
			<point x="719" y="161"/>
		</contour>
		<contour>
			<point x="897" y="526" type="line"/>
			<point x="702" y="526" type="line"/>
			<point x="702" y="497" type="line"/>
			<point x="897" y="497" type="line"/>
		</contour>
		<contour>
			<point x="919" y="-25" type="curve" smooth="yes"/>
			<point x="919" y="526" type="line"/>
			<point x="890" y="526" type="line"/>
			<point x="890" y="-26" type="line" smooth="yes"/>
			<point x="890" y="-37"/>
			<point x="887" y="-40"/>
			<point x="876" y="-40" type="curve" smooth="yes"/>
			<point x="865" y="-41"/>
			<point x="829" y="-41"/>
			<point x="784" y="-40" type="curve"/>
			<point x="789" y="-49"/>
			<point x="795" y="-63"/>
			<point x="797" y="-70" type="curve"/>
			<point x="848" y="-70"/>
			<point x="880" y="-70"/>
			<point x="897" y="-65" type="curve" smooth="yes"/>
			<point x="915" y="-59"/>
			<point x="919" y="-48"/>
		</contour>
		<contour>
			<point x="118" y="524" type="line"/>
			<point x="118" y="755" type="line"/>
			<point x="310" y="755" type="line"/>
			<point x="310" y="524" type="line"/>
		</contour>
		<contour>
			<point x="339" y="784" type="line"/>
			<point x="88" y="784" type="line"/>
			<point x="88" y="495" type="line"/>
			<point x="339" y="495" type="line"/>
		</contour>
		<contour>
			<point x="224" y="509" type="line"/>
			<point x="194" y="509" type="line"/>
			<point x="194" y="45" type="line"/>
			<point x="224" y="45" type="line"/>
		</contour>
		<contour>
			<point x="118" y="376" type="line"/>
			<point x="88" y="376" type="line"/>
			<point x="88" y="14" type="line"/>
			<point x="118" y="14" type="line"/>
		</contour>
		<contour>
			<point x="38" y="11" type="curve"/>
			<point x="47" y="-18" type="line"/>
			<point x="134" y="9"/>
			<point x="253" y="46"/>
			<point x="368" y="82" type="curve"/>
			<point x="364" y="110" type="line"/>
			<point x="242" y="72"/>
			<point x="121" y="33"/>
		</contour>
		<contour>
			<point x="347" y="321" type="line"/>
			<point x="210" y="321" type="line"/>
			<point x="210" y="291" type="line"/>
			<point x="347" y="291" type="line"/>
		</contour>
	</outline>
</glyph>
<glyph name="uni90E8.HK" format="2">
	<advance width="1000" height="1000"/>
	<note>
		cid40743
	</note>
	<outline>
		<contour>
			<point x="927" y="779" type="line"/>
			<point x="618" y="779" type="line"/>
			<point x="618" y="-71" type="line"/>
			<point x="647" y="-71" type="line"/>
			<point x="647" y="750" type="line"/>
			<point x="927" y="750" type="line"/>
		</contour>
		<contour>
			<point x="551" y="674" type="line"/>
			<point x="79" y="674" type="line"/>
			<point x="79" y="645" type="line"/>
			<point x="551" y="645" type="line"/>
		</contour>
		<contour>
			<point x="566" y="411" type="line"/>
			<point x="49" y="411" type="line"/>
			<point x="49" y="382" type="line"/>
			<point x="566" y="382" type="line"/>
		</contour>
		<contour>
			<point x="173" y="615" type="curve"/>
			<point x="146" y="609" type="line"/>
			<point x="170" y="553"/>
			<point x="190" y="480"/>
			<point x="196" y="432" type="curve"/>
			<point x="225" y="440" type="line"/>
			<point x="219" y="487"/>
			<point x="197" y="560"/>
		</contour>
		<contour>
			<point x="483" y="615" type="curve"/>
			<point x="451" y="625" type="line"/>
			<point x="435" y="570"/>
			<point x="405" y="486"/>
			<point x="381" y="436" type="curve"/>
			<point x="408" y="426" type="line"/>
			<point x="433" y="476"/>
			<point x="461" y="553"/>
		</contour>
		<contour>
			<point x="487" y="25" type="line"/>
			<point x="138" y="25" type="line"/>
			<point x="138" y="-4" type="line"/>
			<point x="487" y="-4" type="line"/>
		</contour>
		<contour>
			<point x="499" y="284" type="line"/>
			<point x="126" y="284" type="line"/>
			<point x="126" y="-71" type="line"/>
			<point x="155" y="-71" type="line"/>
			<point x="155" y="255" type="line"/>
			<point x="470" y="255" type="line"/>
			<point x="470" y="-65" type="line"/>
			<point x="499" y="-65" type="line"/>
		</contour>
		<contour>
			<point x="925" y="779" type="line"/>
			<point x="919" y="779" type="line"/>
			<point x="919" y="773" type="line"/>
			<point x="880" y="685"/>
			<point x="819" y="563"/>
			<point x="756" y="454" type="curve"/>
			<point x="878" y="356"/>
			<point x="915" y="278"/>
			<point x="916" y="207" type="curve" smooth="yes"/>
			<point x="916" y="168"/>
			<point x="908" y="132"/>
			<point x="882" y="116" type="curve" smooth="yes"/>
			<point x="868" y="108"/>
			<point x="852" y="104"/>
			<point x="832" y="102" type="curve" smooth="yes"/>
			<point x="808" y="101"/>
			<point x="770" y="101"/>
			<point x="733" y="105" type="curve"/>
			<point x="740" y="95"/>
			<point x="744" y="83"/>
			<point x="745" y="74" type="curve"/>
			<point x="775" y="72"/>
			<point x="812" y="71"/>
			<point x="840" y="74" type="curve" smooth="yes"/>
			<point x="865" y="77"/>
			<point x="886" y="83"/>
			<point x="902" y="92" type="curve" smooth="yes"/>
			<point x="934" y="113"/>
			<point x="946" y="158"/>
			<point x="946" y="207" type="curve" smooth="yes"/>
			<point x="945" y="283"/>
			<point x="912" y="362"/>
			<point x="793" y="460" type="curve"/>
			<point x="847" y="557"/>
			<point x="907" y="674"/>
			<point x="952" y="766" type="curve"/>
			<point x="931" y="781" type="line"/>
		</contour>
		<contour>
			<point x="472" y="802" type="line"/>
			<point x="158" y="802" type="line"/>
			<point x="158" y="773" type="line"/>
			<point x="472" y="773" type="line"/>
		</contour>
	</outline>
</glyph>
<glyph name="uni9185.HK" format="2">
	<advance width="1000" height="1000"/>
	<note>
		cid41053
	</note>
	<outline>
		<contour>
			<point x="858" y="801" type="line"/>
			<point x="559" y="801" type="line"/>
			<point x="559" y="772" type="line"/>
			<point x="858" y="772" type="line"/>
		</contour>
		<contour>
			<point x="854" y="606" type="curve"/>
			<point x="822" y="617" type="line"/>
			<point x="804" y="554"/>
			<point x="780" y="486"/>
			<point x="759" y="439" type="curve"/>
			<point x="783" y="430" type="line"/>
			<point x="804" y="476"/>
			<point x="832" y="544"/>
		</contour>
		<contour>
			<point x="583" y="616" type="curve"/>
			<point x="557" y="610" type="line"/>
			<point x="583" y="551"/>
			<point x="603" y="482"/>
			<point x="609" y="431" type="curve"/>
			<point x="637" y="438" type="line"/>
			<point x="630" y="492"/>
			<point x="609" y="561"/>
		</contour>
		<contour>
			<point x="890" y="284" type="line"/>
			<point x="520" y="284" type="line"/>
			<point x="520" y="-72" type="line"/>
			<point x="549" y="-72" type="line"/>
			<point x="549" y="255" type="line"/>
			<point x="861" y="255" type="line"/>
			<point x="861" y="-68" type="line"/>
			<point x="890" y="-68" type="line"/>
		</contour>
		<contour>
			<point x="877" y="9" type="line"/>
			<point x="537" y="9" type="line"/>
			<point x="537" y="-20" type="line"/>
			<point x="877" y="-20" type="line"/>
		</contour>
		<contour>
			<point x="951" y="412" type="line"/>
			<point x="461" y="412" type="line"/>
			<point x="461" y="382" type="line"/>
			<point x="951" y="382" type="line"/>
		</contour>
		<contour>
			<point x="927" y="674" type="line"/>
			<point x="490" y="674" type="line"/>
			<point x="490" y="645" type="line"/>
			<point x="927" y="645" type="line"/>
		</contour>
		<contour>
			<point x="443" y="593" type="line"/>
			<point x="73" y="593" type="line"/>
			<point x="73" y="-67" type="line"/>
			<point x="102" y="-67" type="line"/>
			<point x="102" y="564" type="line"/>
			<point x="414" y="564" type="line"/>
			<point x="414" y="-54" type="line"/>
			<point x="443" y="-54" type="line"/>
		</contour>
		<contour>
			<point x="425" y="208" type="line"/>
			<point x="84" y="208" type="line"/>
			<point x="84" y="179" type="line"/>
			<point x="425" y="179" type="line"/>
		</contour>
		<contour>
			<point x="425" y="39" type="line"/>
			<point x="84" y="39" type="line"/>
			<point x="84" y="10" type="line"/>
			<point x="425" y="10" type="line"/>
		</contour>
		<contour>
			<point x="458" y="783" type="line"/>
			<point x="51" y="783" type="line"/>
			<point x="51" y="754" type="line"/>
			<point x="458" y="754" type="line"/>
		</contour>
		<contour>
			<point x="216" y="772" type="line"/>
			<point x="186" y="772" type="line"/>
			<point x="186" y="578" type="line"/>
			<point x="216" y="578" type="line"/>
		</contour>
		<contour>
			<point x="323" y="772" type="line"/>
			<point x="293" y="772" type="line"/>
			<point x="293" y="578" type="line"/>
			<point x="323" y="578" type="line"/>
		</contour>
		<contour>
			<point x="216" y="487" type="curve" smooth="yes"/>
			<point x="216" y="579" type="line"/>
			<point x="186" y="579" type="line"/>
			<point x="186" y="487" type="line" smooth="yes"/>
			<point x="186" y="428"/>
			<point x="172" y="356"/>
			<point x="96" y="300" type="curve"/>
			<point x="103" y="296"/>
			<point x="114" y="287"/>
			<point x="119" y="280" type="curve"/>
			<point x="197" y="340"/>
			<point x="216" y="423"/>
		</contour>
		<contour>
			<point x="323" y="383" type="curve" smooth="yes"/>
			<point x="323" y="579" type="line"/>
			<point x="293" y="579" type="line"/>
			<point x="293" y="383" type="line" smooth="yes"/>
			<point x="293" y="345"/>
			<point x="304" y="340"/>
			<point x="340" y="340" type="curve" smooth="yes"/>
			<point x="347" y="340"/>
			<point x="397" y="340"/>
			<point x="404" y="340" type="curve" smooth="yes"/>
			<point x="428" y="340"/>
			<point x="439" y="348"/>
			<point x="442" y="361" type="curve"/>
			<point x="432" y="364"/>
			<point x="422" y="366"/>
			<point x="415" y="372" type="curve"/>
			<point x="413" y="370"/>
			<point x="410" y="370"/>
			<point x="397" y="370" type="curve" smooth="yes"/>
			<point x="387" y="370"/>
			<point x="348" y="370"/>
			<point x="341" y="370" type="curve" smooth="yes"/>
			<point x="325" y="370"/>
			<point x="323" y="372"/>
		</contour>
	</outline>
</glyph>
